<svg id="Object" xmlns="http://www.w3.org/2000/svg" xmlns:xlink="http://www.w3.org/1999/xlink" viewBox="0 0 241.09 437.81"><defs><style>.cls-1{fill:url(#linear-gradient);}.cls-2{fill:url(#linear-gradient-2);}.cls-3{fill:url(#linear-gradient-3);}.cls-4{fill:url(#linear-gradient-4);}.cls-5{fill:url(#linear-gradient-5);}.cls-6{fill:url(#linear-gradient-6);}.cls-7{fill:url(#linear-gradient-7);}.cls-8{fill:url(#linear-gradient-8);}.cls-9{fill:url(#linear-gradient-9);}.cls-10{fill:url(#linear-gradient-10);}.cls-11{fill:url(#linear-gradient-11);}.cls-12{fill:url(#linear-gradient-12);}.cls-13{fill:url(#linear-gradient-13);}.cls-14{fill:url(#linear-gradient-14);}.cls-15{fill:url(#linear-gradient-15);}.cls-16{fill:url(#linear-gradient-16);}.cls-17{fill:url(#linear-gradient-17);}.cls-18{fill:url(#linear-gradient-18);}</style><linearGradient id="linear-gradient" x1="118.93" y1="1043.37" x2="881.8" y2="182.69" gradientUnits="userSpaceOnUse"><stop offset="0" stop-color="#ab8d60"/><stop offset="0.07" stop-color="#b29466"/><stop offset="0.51" stop-color="#dbc087"/><stop offset="1" stop-color="#ab8d60"/></linearGradient><linearGradient id="linear-gradient-2" x1="119.46" y1="1043.83" x2="882.33" y2="183.16" xlink:href="#linear-gradient"/><linearGradient id="linear-gradient-3" x1="120.53" y1="1044.78" x2="883.4" y2="184.11" xlink:href="#linear-gradient"/><linearGradient id="linear-gradient-4" x1="119.94" y1="1044.28" x2="882.82" y2="183.59" xlink:href="#linear-gradient"/><linearGradient id="linear-gradient-5" x1="154.3" y1="1074.72" x2="917.17" y2="214.04" xlink:href="#linear-gradient"/><linearGradient id="linear-gradient-6" x1="160.44" y1="1080.16" x2="923.31" y2="219.49" xlink:href="#linear-gradient"/><linearGradient id="linear-gradient-7" x1="176.16" y1="1094.09" x2="939.03" y2="233.42" xlink:href="#linear-gradient"/><linearGradient id="linear-gradient-8" x1="185.33" y1="1102.23" x2="948.21" y2="241.55" xlink:href="#linear-gradient"/><linearGradient id="linear-gradient-9" x1="172.91" y1="1091.21" x2="935.78" y2="230.54" xlink:href="#linear-gradient"/><linearGradient id="linear-gradient-10" x1="173.64" y1="1091.86" x2="936.51" y2="231.19" xlink:href="#linear-gradient"/><linearGradient id="linear-gradient-11" x1="169.74" y1="1088.41" x2="932.61" y2="227.73" xlink:href="#linear-gradient"/><linearGradient id="linear-gradient-12" x1="155.85" y1="1076.09" x2="918.72" y2="215.41" xlink:href="#linear-gradient"/><linearGradient id="linear-gradient-13" x1="159.54" y1="1079.37" x2="922.42" y2="218.69" xlink:href="#linear-gradient"/><linearGradient id="linear-gradient-14" x1="170.23" y1="1088.84" x2="933.11" y2="228.17" xlink:href="#linear-gradient"/><linearGradient id="linear-gradient-15" x1="155.26" y1="1075.57" x2="918.13" y2="214.89" xlink:href="#linear-gradient"/><linearGradient id="linear-gradient-16" x1="154.57" y1="1074.96" x2="917.44" y2="214.29" xlink:href="#linear-gradient"/><linearGradient id="linear-gradient-17" x1="156.64" y1="1076.8" x2="919.51" y2="216.12" xlink:href="#linear-gradient"/><linearGradient id="linear-gradient-18" x1="211.42" y1="1125.35" x2="974.29" y2="264.67" xlink:href="#linear-gradient"/></defs><path class="cls-1" d="M596.66,512.38c-.67-3.76-1.06-7.85-2.63-11.36a1.28,1.28,0,0,0-2.42.35c-.35,3.83.58,7.81,1.16,11.59C593.15,515.46,597.1,514.87,596.66,512.38Z" transform="translate(-465.76 -405.81)"/><path class="cls-2" d="M593.55,503.16c-.8-2.32-4.38-.8-3.52,1.53a37.42,37.42,0,0,1,2.1,14.2.53.53,0,0,0,1,.26A20.63,20.63,0,0,0,593.55,503.16Z" transform="translate(-465.76 -405.81)"/><path class="cls-3" d="M596.5,511.84a1,1,0,0,0,.17-.37,2.5,2.5,0,0,0,.21-1.09,4.45,4.45,0,0,0,.06-1.74,2.09,2.09,0,0,0-2.32-1.72l-.12,0,0,0a1.39,1.39,0,0,0-1.54,1.59s0,0,0,.06a1.77,1.77,0,0,0,0,.65,3.56,3.56,0,0,0,.36,1,3.38,3.38,0,0,0,.09.41,2.23,2.23,0,0,0,1.42,1.65,1.62,1.62,0,0,0,1.73-.47Z" transform="translate(-465.76 -405.81)"/><path class="cls-4" d="M596.4,506.14a2,2,0,0,0-.16-.14c0-.08-.06-.17-.1-.26a2.28,2.28,0,0,0-4.18,1.81,10.38,10.38,0,0,0,.5,1.31,4.7,4.7,0,0,0,.92,2,2.1,2.1,0,0,0,1.19.76,1.72,1.72,0,0,0,2.77.24C599,510.09,597.78,507.66,596.4,506.14Z" transform="translate(-465.76 -405.81)"/><path class="cls-5" d="M511.28,670.86a2.34,2.34,0,0,0-2.72,0,7.56,7.56,0,0,0-3,4.72,2,2,0,0,0-.12,1.08,3.83,3.83,0,0,0,0,.47,2.06,2.06,0,0,0,.71,1.44,2,2,0,0,0,1.87.46A2.49,2.49,0,0,0,510,677.7c.34-.71.51-1.48.86-2.19s.81-1.32,1.1-2A2.27,2.27,0,0,0,511.28,670.86Z" transform="translate(-465.76 -405.81)"/><path class="cls-6" d="M516.81,695.63c0-.56,0-1.12.05-1.69a1.92,1.92,0,0,0,.71-1.61c-.05-1.17-.13-2.32-.24-3.46s-.15-2.21-.22-3.32a1.61,1.61,0,0,0-.63-1.18c0-.66-.06-1.33-.1-2,0-1.41,0-2.82-.07-4.23a1.44,1.44,0,0,0-.49-1.06c0-.34,0-.69,0-1a28.52,28.52,0,0,0-.48-4.35c-.07-.42-.12-.84-.2-1.26a1.61,1.61,0,0,0-.17-.45c-.15-.57-.33-1.14-.52-1.71,0-1.49-.12-3-.16-4.47s-2.23-1.51-2.79-.34c-.89,1.88-1.72,3.77-2.48,5.72a1.55,1.55,0,0,0,1,2,1.36,1.36,0,0,0,.67.56,1.49,1.49,0,0,0-1.14,1.85c.07.37.12.74.19,1.12a2,2,0,0,0-1.26,1.77,1.58,1.58,0,0,0-1.29.93,1.91,1.91,0,0,0-.71,2.1,36.28,36.28,0,0,1,1.13,4.39c.26,1.59.47,3.18.63,4.79a1.47,1.47,0,0,0,.43.89l0,2.07a1.49,1.49,0,0,0,.11.45,2,2,0,0,0-.1.64c0,.46,0,.92,0,1.38a1.61,1.61,0,0,0,.58,1.26v0a1.8,1.8,0,0,0,.54,1.05,1.62,1.62,0,0,0,1.48,1.15,2.08,2.08,0,0,0,.75.32,1.83,1.83,0,0,0,1,.67c.61,1.78,3.74,1.81,3.76-.34,0-.77,0-1.53,0-2.3A1.59,1.59,0,0,0,516.81,695.63Z" transform="translate(-465.76 -405.81)"/><path class="cls-7" d="M517.41,725.31a5.45,5.45,0,0,0-.89-2.12.54.54,0,0,0-.09-.12c-.11-.4-.22-.8-.34-1.21a2,2,0,0,0-.27-.55l0-.16a1.38,1.38,0,0,0,0-.29c-.25-1.09-.49-2.19-.73-3.29a1.69,1.69,0,0,0-.13-.31c0-.17-.11-.34-.15-.5a46.23,46.23,0,0,1-.32-6.25,2,2,0,0,0-.18-.88c.27-.81.62-1.57.92-2.46a3.32,3.32,0,0,0,.94-2.82,12.24,12.24,0,0,0,.71-1.68,1.78,1.78,0,0,0,.67-1.19,7,7,0,0,0,.18-2.09h0a2.54,2.54,0,0,1,0-.29,1.2,1.2,0,0,0,.5-1c0-1.06,0-2.12,0-3.18a1.67,1.67,0,0,0-1-1.62c-.08-.31-.14-.62-.24-.94-.36-1.26-2.27-1.07-2.08.31.1.53.14,1.06.2,1.59a1.69,1.69,0,0,0-.1.27c0,.15,0,.29-.08.44a1.39,1.39,0,0,0-1,1.38c0,1.09,0,2.18,0,3.28a9.5,9.5,0,0,1-2.21,4.67,1.58,1.58,0,0,0-.23,1.76,14.09,14.09,0,0,0-1.24,2.3,6.25,6.25,0,0,0-.24,1.71,1.74,1.74,0,0,0-.15,1v0a1.36,1.36,0,0,0,0,.2,29.21,29.21,0,0,0,1.05,6.08,2.16,2.16,0,0,0,.36.71l.12.25c0,.11.07.23.1.35.36,1.79.71,3.58,1.07,5.38,0,0,0,.07,0,.11l.21,1a2.08,2.08,0,0,0,.15.4c-.17,1.12-.35,2.23-.52,3.35-1.78,1.6.51,4.55,2.3,2.94A6.8,6.8,0,0,0,517.2,727,2,2,0,0,0,517.41,725.31Z" transform="translate(-465.76 -405.81)"/><path class="cls-8" d="M517.5,725.36a1.42,1.42,0,0,0-2.23,1.75,13.24,13.24,0,0,0-1,1.52,1.1,1.1,0,0,0-.33.53c-.27.42-.48.78-.53.88a11.2,11.2,0,0,0-.75,2.58c.32.92.63,1.84.92,2.77a1.28,1.28,0,0,0,1.64-1.14c.12-1.4,1.11-2.46,1.23-3.8a16.89,16.89,0,0,1,1-1.5C518.17,727.83,518.5,726.49,517.5,725.36Z" transform="translate(-465.76 -405.81)"/><path class="cls-9" d="M514.94,702.44a2.46,2.46,0,0,0-.27,1,.29.29,0,0,1,0,.09,1.48,1.48,0,0,0,0,.41,3,3,0,0,1-.26.64,1.46,1.46,0,1,0,2.52,1.44,6.7,6.7,0,0,0,.73-2.91A1.39,1.39,0,0,0,514.94,702.44Z" transform="translate(-465.76 -405.81)"/><path class="cls-10" d="M515.05,727.62a1.44,1.44,0,0,0,.48-1.37c-.45-2.26-.92-4.51-1.46-6.75a1,1,0,0,0,.1-.35c.05-.57.11-1.13.16-1.69a.92.92,0,0,0-1-1.06c-.35-1.06-.68-2.13-1-3.22-.06-.19-.11-.39-.17-.58l-.06,0a1.52,1.52,0,0,0-1.58-.79,1.48,1.48,0,0,0,0-.46c-.48-1.79-1.24-4-1-5.92s1.66-3.27,2.39-5c1.17-2.77.65-5.66,0-8.52-.48-2.27-4.07-1.76-3.58.53.95,4.48-.86,6.84-2.09,10.8a10.72,10.72,0,0,0-.28,4.54,1.8,1.8,0,0,0-.28,1.69l1.5,4.6a1.87,1.87,0,0,0,0,1.1c.63,2.06,1.34,4.09,2.1,6.1a32.69,32.69,0,0,0,1.73,7.55,1.51,1.51,0,0,0,1.06,1c1.07,1.07,3.42.22,3-1.54C515.15,728.06,515.1,727.84,515.05,727.62Z" transform="translate(-465.76 -405.81)"/><path class="cls-11" d="M513.25,707.21a21.49,21.49,0,0,0,1.48-4,2.06,2.06,0,0,0-.6-2.12c0-.07,0-.13.07-.2a1.69,1.69,0,0,0-.75-2.14,31.41,31.41,0,0,0,.06-3.89c-.07-1.55-2.75-1.54-2.76,0a34.48,34.48,0,0,1-.54,5.92c-1.29,2.54-2.92,5.82-1.45,8.15-.1.42-.24.82-.34,1.25-.48,2.06,2.33,2.67,3.47,1.41a3.09,3.09,0,0,0,.81-1.84,1.93,1.93,0,0,0,0-.54C512.86,708.56,513,707.88,513.25,707.21Z" transform="translate(-465.76 -405.81)"/><path class="cls-12" d="M545.41,609.47c3.82-6.38,8-12.53,11.7-19,.7-1.24-1.23-2.15-2.07-1.18-5.56,6.46-10,13.84-14.29,21.19q-2.87,4.95-5.54,10c-1.33,2.53-3.27,5.22-3.28,8.17,0,3.46,1.17,7.2,1.65,10.63.61,4.29,1.11,8.6,1.56,12.92.89,8.63,1.44,17.29,2.33,25.93.22,2.07,3.24,1.54,3.16-.48-.67-15.9-3.23-31.38-5-47.14-.44-3.91,1.86-6.93,3.68-10.31Q542.24,614.77,545.41,609.47Z" transform="translate(-465.76 -405.81)"/><path class="cls-13" d="M545.29,663.19l1.3-7.69a1.6,1.6,0,0,0-.61-1.63q.39-5.37.79-10.73a1.83,1.83,0,0,0-.63-1.57q.43-7.05.82-14.1a1.88,1.88,0,0,0-.59-1.53q.33-4.83.61-9.66c.39-2.87.79-5.74,1.18-8.61.35-2.54-3.41-2.93-3.9-.48-.29,1.43-.58,2.85-.88,4.27a1.46,1.46,0,0,0-.63.56q-4,6.81-7.43,13.89a1.82,1.82,0,0,0-.43,1.51c.1.71.19,1.41.28,2.12a46.17,46.17,0,0,0,.66,14.06,1.91,1.91,0,0,0,1,1.3c0,.94,0,1.89,0,2.84a2.39,2.39,0,0,0,.21,1c.09,1.69.16,3.38.27,5.07a1.56,1.56,0,0,0,.78,1.29c.09,1.32.21,2.65.29,4a1.57,1.57,0,0,0,.46,1.07c.24,3.16.6,6.3,1.06,9.44,0,1.25,0,2.51-.07,3.77a1.35,1.35,0,0,0-1.5,1.29q0,4.82,0,9.63a1.88,1.88,0,0,0,.94,1.53c0,.45.07.91.08,1.36,0,1,1.73,1,1.8,0,0-.56,0-1.11.06-1.67a1.43,1.43,0,0,0,.2-.39,46.62,46.62,0,0,0,1.61-11.17,1.76,1.76,0,0,0,.79-1.64c-.15-2.49-.28-5-.42-7.46A1.82,1.82,0,0,0,545.29,663.19Z" transform="translate(-465.76 -405.81)"/><path class="cls-14" d="M559,650.68c.38-2.22-3.09-2.63-3.47-.42a12,12,0,0,1-.69,2.42,1.87,1.87,0,0,0-.53.61c-.59,1.08-1.18,2.16-1.78,3.24a1.56,1.56,0,0,0-.15.48c-.23.43-.46.86-.71,1.28a1.81,1.81,0,0,0-.24,1c-1.18,2-2.35,4.08-3.48,6.15,0,.08-.13.13-.18.22l-2,3.77a1.62,1.62,0,0,0-.21-.36c.19-.83.39-1.65.54-2.49a1.59,1.59,0,0,0-1.07-1.75c.17-.59.32-1.18.5-1.76a1.6,1.6,0,0,0-1.15-2.06q.45-3,1-6c.24-1.4-1.83-1.59-2.15-.26-.93,3.87-1.69,7.76-2.4,11.68a1.18,1.18,0,0,0,.24,1c-.14.56-.3,1.12-.43,1.68a1.4,1.4,0,0,0,1,1.69c-.25.89-.5,1.78-.8,2.66a1.67,1.67,0,0,0,.16,1.45l-.72,2.39a1.76,1.76,0,0,0,.18,1.49c-.18.5-.37,1-.55,1.52-.77,2.09,2.35,3.39,3.2,1.32.06-.13.12-.26.17-.39a1.89,1.89,0,0,0,.55-.63l3.66-6.93a1.78,1.78,0,0,0,.21-.27c1-1.94,2-3.86,3.06-5.78a1.47,1.47,0,0,0,.83-.58,58.1,58.1,0,0,0,6.21-11.41,1.55,1.55,0,0,0,.07-1A16.29,16.29,0,0,0,559,650.68Z" transform="translate(-465.76 -405.81)"/><path class="cls-15" d="M559.6,649.81c.43-1.3-.59-3.38-1-4.38-2.59-6.61-6.16-12.49-3-19.58a31.36,31.36,0,0,0,3.29-14.09c-.07-6.31-1.45-12.51-1.37-18.83,0-2.23-3.46-2.68-3.49-.42-.13,11.14,3.34,21.44-1.66,32a16.39,16.39,0,0,0-1.13,11.64c.41,1.61,4.44,12.28,5.9,12.34a1.32,1.32,0,0,0-.33.72.86.86,0,0,1,0,.16,1.43,1.43,0,0,0,.35,1c.09.86.17,1.72.2,2.58.06,1.18,2.09,1.17,2.1,0C559.48,651.87,559.53,650.84,559.6,649.81Z" transform="translate(-465.76 -405.81)"/><path class="cls-16" d="M558.17,617a.74.74,0,0,0-1,.14,12.11,12.11,0,0,0-1.07,3.19,4.39,4.39,0,0,1-2.17,2.84c-1.67,1.06.26,3.57,1.91,2.43a6.63,6.63,0,0,0,3-4.12C559.12,620,559.38,618.05,558.17,617Z" transform="translate(-465.76 -405.81)"/><path class="cls-17" d="M557.9,650.05l.06-4.37a2,2,0,0,0-.48-1.4,1.73,1.73,0,0,0-2.73-.34c-.78-2.92-1.65-5.81-2.67-8.65-.12-.48-.24-1-.37-1.45-.05-.32-.09-.65-.14-1a1.77,1.77,0,0,0,.24-.4,111.6,111.6,0,0,0,4.85-17.55,2.39,2.39,0,0,0,.19-.57,31.06,31.06,0,0,0,.32-5.6v-.06h0c0-.17,0-.34,0-.52a1.57,1.57,0,0,0-1.4-1.56c.2-.5.38-1,.58-1.51a2,2,0,0,0-1.78-2.66l.72-2.69.78-1.45c1-1.95-2.16-3.78-3.37-1.93l-.2.33a2.18,2.18,0,0,0-.61.74l-.8,1.55c-1.55,2.55-3,5.13-4.35,7.83a1.62,1.62,0,0,0,0,1.44,1.4,1.4,0,0,0,.17.51,1.75,1.75,0,0,0,0,.56q-1,2.64-1.91,5.39a2,2,0,0,0-1.89,1.59c-.7,3.05-1.41,6.1-2.11,9.15a1.54,1.54,0,0,0,.46,1.56c-.56,3.88-1.06,7.76-1.43,11.67a2,2,0,0,0,1.2,2.06l1.11.35a2,2,0,0,0,2.43-1c.12,1.17.24,2.35.35,3.52a1.76,1.76,0,0,0-1.51,1.61l-2.07,24.22a2,2,0,0,0,3.1,1.81,1.68,1.68,0,0,0,2.08-1.14c.21-.66.38-1.32.56-2,1.23-2,2.39-3.93,3.46-6,.65-.95,1.29-1.9,1.94-2.84a1.64,1.64,0,0,0,1.66-1.08c.52-1.44,1-2.9,1.41-4.35a2.29,2.29,0,0,1,.1-.23,1.49,1.49,0,0,0,1.59-1.43c0-.43.06-.85.09-1.27A1.4,1.4,0,0,0,557.9,650.05Z" transform="translate(-465.76 -405.81)"/><path class="cls-18" d="M497,768.9l.33.08a1.94,1.94,0,0,0,1.95-1l81.67-151.27c6.55-12.12,11.83-23.13,10.24-35.15-.65-4.92-2.47-9.52-4.23-14-1.69-4.27-3.44-8.68-4-13.17-1.48-11.58,4.64-22.83,11.6-34.3l3.17-5.23a603.77,603.77,0,0,1,38.55,265.72l-.21,2.49c-.89,10.63-1.81,21.61.61,32.25,2.35,10.35,9.33,22.86,21.84,27a27,27,0,0,0,5,1.12,28.1,28.1,0,0,0,3.3.2c13.14,0,24.82-9.38,30.49-18.77,7.62-12.65,9-28.05,9.42-42.81,1.87-71-13.54-146.44-47.1-230.67-7-17.45-15.68-37.77-27.66-56.08l-.48-.73c-2.3-3.53-6.52-10-11.51-16.4l4.27-7c8.48-14,19-31.4,19.13-50.26,0-4.32-1.54-10-5.07-13.05a7.89,7.89,0,0,0-6.54-1.9,8.31,8.31,0,0,0-6,3.51c-2.4,3.72-1,9,.25,13.63a26.49,26.49,0,0,1,1.09,5.22c.13,6.13-4.66,13.67-8.92,20.39-1.54,2.43-3,4.72-4.11,6.81l-5.47,10.19c-8.06-7.22-14.84-9.17-20.16-5.82-4.23,2.67-6.68,8.26-6.24,14.25.37,5,2.37,9.49,4.32,13.86l.13.29q2.24,5.07,4.38,10.17l-117.51,219c-5.13,9.56-9.88,19.74-6.75,29.8C470.56,759.49,483.52,764.89,497,768.9Zm96-265.84c1,2.41,2,4.83,2.94,7.25l-4.72,7.77c-7.33,12.08-13.77,24-12.13,36.82.63,5,2.47,9.61,4.25,14.11,1.67,4.23,3.4,8.6,4,13,1.44,10.86-3.59,21.27-9.8,32.78L560.82,645.7a48.71,48.71,0,0,0-2.12-5.56c-.36-.86-.73-1.73-1.08-2.6-1-2.48-2-5.7-1.16-8.65a13,13,0,0,1,1.66-3.25,13.6,13.6,0,0,0,2-4.18c1-4.15.65-9,.34-13.21-.06-.85-.12-1.69-.17-2.5-.33-5.4-1-11.06-1.94-17.3,7.19-7.42,14.8-10.57,23.25-9.61a1.9,1.9,0,0,0,1.76-.75,2.09,2.09,0,0,0,.23-2,1.87,1.87,0,0,0-1.54-1.11c-23-2.59-35.78,21.23-45.1,38.62-1.24,2.3-2.42,4.51-3.57,6.57l-2.87,5.17a1.51,1.51,0,0,0-.35.63c-13,23.23-25.5,46.64-37.29,69.57-7.27,14.16-14.6,28.8-21.78,43.51a1.82,1.82,0,0,0,.87,2.5,2,2,0,0,0,2.68-.89c9.73-19.93,19.91-40.06,30.3-59.88a77.44,77.44,0,0,1,1.81,11.94c.23,3.25.38,5.4-1.3,8-1.15,1.79-1.84,3-1.74,5.29.18,4,1.46,8.09,2.68,12.06.4,1.29.8,2.56,1.14,3.79,1.3,4.67,2.73,9.42,4.36,14.48l-15.32,28.39c-11.77-3.63-22.93-8.46-26.09-18.63-2.67-8.62,1.73-18,6.47-26.79Zm-47.12,103a105.45,105.45,0,0,1,9.66-14.42c.69,4.77,1.17,9.16,1.45,13.35.21,3.13.32,6.29.33,9.37v.4c0,3.15,0,6.14-1.64,8.75-2.73,4.26-3.32,7.85-2,12.4a44.1,44.1,0,0,0,2.14,5.6c1.28,3,2.5,5.74,2.59,8.83l-18.1,33.52c-2.52-18.63-4.77-37.46-6.68-56.05Q539.61,616.89,545.83,606.06ZM508,710.54c-.79-3-1.42-5.41.23-8a10.1,10.1,0,0,0,2-5.95,53.74,53.74,0,0,0-.34-6.26,82.23,82.23,0,0,0-2.63-14q2.76-5.24,5.54-10.47a225.88,225.88,0,0,1,3.68,31,14.64,14.64,0,0,1-2,9,9,9,0,0,0-1.56,5.7c.41,5.32,2.05,10.77,3.74,15.92l-2.57,4.75c-1.48-4.7-2.77-9.07-3.91-13.27q-1-3.64-1.91-7.31Zm8.4-1a12.83,12.83,0,0,1,1.34-2.88,14.6,14.6,0,0,0,1.59-3.46,22.12,22.12,0,0,0,.37-7.62c-.86-11.06-1.91-22.81-4.45-34.21,1.95-3.64,3.9-7.27,5.88-10.9q4.78-8.84,9.67-17.64c2,18.77,4.26,37.57,6.81,55.94l-18.72,34.66c-.56-1.91-1-3.68-1.4-5.36-.11-.48-.24-1-.37-1.52C516.48,714.21,515.81,711.55,516.35,709.55ZM631,428.19a28.54,28.54,0,0,0-1.22-6.15c-1-3.87-2.2-8.24-.75-10.5a4.63,4.63,0,0,1,3.35-1.77,3.71,3.71,0,0,1,1.15,0,4.21,4.21,0,0,1,2.23,1c2.16,1.86,3.72,6.09,3.7,10.07-.09,17.78-10.33,34.67-18.57,48.26l-3.53,5.82c-2-2.4-4-4.57-5.83-6.47l6-11.13c1.06-2,2.49-4.24,4-6.63C626,443.56,631.14,435.49,631,428.19ZM611.1,487.5a5.62,5.62,0,0,1-10.17,3.21,6,6,0,0,1-.16-6.66,5.07,5.07,0,0,1,4.38-2.47,6,6,0,0,1,6,5.92ZM643,533.76c-5.8-2.33-9.67-11.81-12.22-18.08-.42-1-.81-2-1.16-2.8-2.18-5-4.3-10.16-6.3-15.29l-.21-.54c-1-2.43-1.9-4.87-2.76-7.35l-.32-.9c-.59-1.61-1.48-4-1.31-5.84,4.19,5.57,7.61,10.81,9.52,13.73l.48.74a255.91,255.91,0,0,1,19.37,36.45A7.18,7.18,0,0,1,643,533.76ZM616.3,479.89c-2.19,3.54,0,8.81,1.39,12.38.23.56.44,1.08.62,1.55,2.63,7,5.55,14.21,8.67,21.36.3.68.62,1.44,1,2.25,2.8,6.65,7,16.71,14,19.46a10.34,10.34,0,0,0,7.47,0c1.7,3.9,3.42,8,5.36,12.85a11.76,11.76,0,0,1-2.42-1.38,9.73,9.73,0,0,0-4.11-1.9c-.32,0-.63,0-1,0a19.64,19.64,0,0,0-3.37.38c-1.79.3-3.48.59-5.07,0-3.1-1.16-6-4.66-7.75-6.75a48.62,48.62,0,0,1-5.47-8.21c-3.79-7-6.2-14.82-8.52-22.35-1.55-5-3.15-10.18-5.15-15.14a9.55,9.55,0,0,0,3.06-6.84,9.8,9.8,0,0,0-7-9.43,9.52,9.52,0,0,0-4.06-.32c-1.36-2.94-2.59-5.44-4-7.9l-.36-.61a24.88,24.88,0,0,1-3.12-6.72c3.93,1.11,8.73,4.71,14.28,10.73C612.47,475.2,614.36,477.42,616.3,479.89Zm-15.54-1.06a9.52,9.52,0,0,0-3.25,3.07,10,10,0,0,0,.28,11.12,9.73,9.73,0,0,0,6.68,3.81,9.17,9.17,0,0,0,3.91-.34c.24-.08.49-.17.74-.28,1.87,4.7,3.4,9.63,4.88,14.41,2.82,9.09,5.74,18.49,11,26.76,3.35,5.21,8.52,12.24,14.69,13a15.32,15.32,0,0,0,4.51-.3c2.1-.35,3.9-.66,5.61.37.49.29.95.62,1.4.95,1.36,1,2.88,2.11,4.89,1.81.85,2.15,1.7,4.29,2.53,6.43-4.63,4.1-2.75,12.41-1.6,17.46l.16.73c.64,2.86,1.45,5.74,2.23,8.53,1.81,6.46,3.69,13.14,3.54,19.92a26.05,26.05,0,0,1-2.76,11.47A18.54,18.54,0,0,1,656,623.2c-.38.32-.77.63-1.16.93a16.51,16.51,0,0,0-2.4,2.14c-2.72,3.11-2,6.93-1.33,10.29l.08.43c.77,4,1.75,8.09,3,12.42a7.83,7.83,0,0,0-1.47,1.4c-3.21,3.87-2.65,9.14-1.88,13.78.88,5.22,1.93,10.49,3,15.62.55,2.74,1.1,5.51,1.63,8.29-3.63,3.7-3.5,9.68-3.41,13.69a115.35,115.35,0,0,0,1.36,13.36c.35,2.48.7,5,.95,7.44a83.59,83.59,0,0,1-.52,20.8c-.63,4.28-2.1,7.12-4.62,8.94a11,11,0,0,1-7.47,2c.46-12.16.55-24.46.28-36.59,7.34-2.92,7.42-11.25,7.48-16.82A204.59,204.59,0,0,0,647.66,675l-.11-1a261.26,261.26,0,0,0-4-26.09c-.93-4.15-1.85-7.86-3.77-11.25a22.92,22.92,0,0,0-6.33-6.83c-.86-5-1.81-10.14-2.83-15.33,9.11-1.61,19.63-4.83,23.35-14.56,4.72-12.35-2.14-27.77-4.35-32.21l-.15-.3a20.81,20.81,0,0,0-3.59-5.59c-1.84-1.84-4-2.31-6.17-2.76l-.86-.18a22.7,22.7,0,0,1-13.3-8.57c-2.4-3.24-3.77-7.17-5.1-11-.63-1.81-1.26-3.62-2-5.37-1.7-4-3.74-7.94-5.72-11.72-.77-1.49-1.55-3-2.31-4.47-1.21-2.39-2.28-4.9-3.42-7.55-3.68-8.62-7.49-17.52-16.15-22.14l-.78-1.77c-1.8-4.07-3.67-8.27-4-12.57-.33-4.56,1.41-8.75,4.44-10.66a6.06,6.06,0,0,1,2.45-.9,22.07,22.07,0,0,0,3.14,7.72C597.77,472.79,599.3,475.71,600.76,478.83Zm93.17,344-.29.49a23.07,23.07,0,0,1,1.44-4.59,26.77,26.77,0,0,0,1.4-4.32,63.36,63.36,0,0,0,.77-11.55l0-2c.05-4.35.13-9,.6-13.54l.11-1.15c.28-3.11.71-7.8,2.91-9.57a3.37,3.37,0,0,1,2-.73c0,2-.06,4-.11,6-.38,14.23-1.71,29-8.87,40.9ZM696,778.51c-1.63,5.53-1.78,11.51-1.92,17.3l0,.53c0,1.6,0,3.21,0,4.83a66.4,66.4,0,0,1-.79,12.7,26.34,26.34,0,0,1-1.31,4c-1.14,2.94-2.41,6.24-1.23,9.45a37.89,37.89,0,0,1-5,4.95c-.56-.49-1.14-1-1.73-1.43a15.21,15.21,0,0,1-3.89-4c-1.45-2.47-1.52-5.6-1.48-8.46a17,17,0,0,0,9.14-8.5c2.22-4.41,2.88-9.28,3.41-14.3.89-8.38,1.49-16.83,1.8-25.14,6.26-1.19,8.28-8.16,9.24-13.41.19-1,.35-2,.47-3.07.23,6.24.33,12.45.3,18.58C699.66,772.72,697.06,774.9,696,778.51Zm-49.33,35.75c-1-3.06-3.16-9.2-7.58-10.3-.08-1.68-.1-3.44-.08-5.35a2.18,2.18,0,0,1,1.29-1,4,4,0,0,1,3.12.37,8.41,8.41,0,0,1,2.82,2.77,28.76,28.76,0,0,1,3.31,7.62l.13.42c1.48,4.79,3,9.75,5.72,14.25A29.31,29.31,0,0,0,666,833.74a22.43,22.43,0,0,0,6.59,2.5c.83.17,1.69.25,2.57.34a17.07,17.07,0,0,1,3,.45,24.91,24.91,0,0,1-18.5,1.56,25.35,25.35,0,0,1-12-8.66C649.3,826.18,649,820.92,646.66,814.26ZM603.53,510.73c.91,2.14,1.82,4.26,2.8,6.27,1.1,2.25,2.26,4.48,3.42,6.7,1.31,2.5,2.62,5,3.84,7.56,1.35,2.84,2.45,5.84,3.52,8.74.72,2,1.44,3.94,2.25,5.89a26.7,26.7,0,0,0,18.87,16.28l1,.22a8.6,8.6,0,0,1,3.78,1.36,11.57,11.57,0,0,1,2.47,3.36,51.95,51.95,0,0,1,6.54,22.81c.28,7-2,12.36-6.67,15.87-4.49,3.34-10,4.61-15.43,5.53q-.71-3.48-1.46-6.94c8.22-4.52,7.52-16,4.32-24.66a53.84,53.84,0,0,0-7.41-13.3c-1.34-1.82-2.88-3.54-4.37-5.2a54.1,54.1,0,0,1-5.62-7,605.65,605.65,0,0,0-22.09-60.32C598.16,498.21,600.88,504.56,603.53,510.73Zm16.22,53.83a62.14,62.14,0,0,1,7.9,11.58c2.88,5.61,5.54,14.27,3.58,20.17a8.91,8.91,0,0,1-3.46,4.67c-2.86-12.91-6.17-25.84-9.86-38.52C618.53,563.15,619.15,563.85,619.75,564.56Zm47.59,38.75c1.68,7.71,2.84,15.28,4,23,1.08,7.3,2.39,15,5.39,22.07,2.85,6.69,7.6,10.32,12.83,9.91q.47,2,.9,4c-3.6,2.75-3.08,9.42-2.78,13.09l0,.48c.46,6,1.44,11.94,2.38,17.74l.65,4c1.06,6.66,2.25,14.19,3,21.57.38,3.9.61,7.34.69,10.52.09,3.68,0,7.17-1.75,9.53-1.58-27.15-6.72-52.57-15.3-75.6a59.76,59.76,0,0,0-2.34-5.55,39.73,39.73,0,0,0-2.13-9.25c-.92-2.54-2.18-6-4.58-7.81a4.65,4.65,0,0,0-6.11.19c-1.82,1.64-2.07,3.93-1.89,6.14a11.29,11.29,0,0,0-3.15.52c-1.1-3.89-2-7.74-2.72-11.45l-.19-.93c-.41-2-.87-4.2-.12-5.87a8.24,8.24,0,0,1,2.77-2.92c.42-.32.83-.64,1.21-1,4.67-4,7.55-10.18,8.12-17.36.61-7.83-1.5-15.42-3.55-22.77l-.25-.89a101.54,101.54,0,0,1-2.79-12l-.05-.28c-.43-2.84-1-6.89.44-9.34,2.2,5.76,4.39,11.64,6.49,17.51a1.68,1.68,0,0,0,.13.7c1.26,2.91.81,6,.32,9.17-.1.68-.2,1.37-.29,2A30.94,30.94,0,0,0,667.34,603.31Zm21.28,51.75c-6.43,0-9.51-8.52-11.3-15.12a149.24,149.24,0,0,1-3.34-18.3l-.39-2.76c-.45-3.16-1.13-6.34-1.78-9.4-.76-3.59-1.54-7.3-2-11a28.75,28.75,0,0,1,.39-7.17v0c7.45,21.75,13.67,43.16,18.53,63.74ZM654.14,812.17c-.34-1-.65-2.09-1-3.17-1.34-4.62-2.85-9.84-6.88-13.07a8.07,8.07,0,0,0-5-1.78,6.8,6.8,0,0,0-2.17.35c.17-3.75.48-7.48.78-11.1l.21-2.49c.36-4.42.68-9.12,1-14.34,5.58.44,7.15,7.36,8.46,15.66.26,1.6.49,3.07.77,4.26.14.6.27,1.23.41,1.88,1.09,5.06,2.57,11.92,7.87,14.39a25.93,25.93,0,0,0,1.09,4.57c1.83,5.29,6.6,11,13.15,11.77a13.05,13.05,0,0,0,2.42.06c0,2.82.15,6.07,1.65,8.94a17.35,17.35,0,0,0,4.88,5.26l1.16.95c-.4.27-.8.53-1.21.78-1.77-1.32-3.8-1.52-5.77-1.71l-1-.11a20.08,20.08,0,0,1-9.48-3.8C660.46,825.82,656.76,820.16,654.14,812.17Zm2.26-98.4-.21-1.57a79.78,79.78,0,0,1-.94-12.11,20.14,20.14,0,0,1,1-6.94c1.12,6.31,1.82,11.4,2.24,16.22A465.44,465.44,0,0,1,660.15,760l-.08,4.65a187.47,187.47,0,0,1-1.37,23.44l-.05.55a87.17,87.17,0,0,0-.42,9.87c-2.05-2-2.89-5.45-3.65-8.53l-.31-1.25c-.87-3.37-1.52-6.85-2.14-10.21l-.44-2.3c-1.49-7.81-5.24-12.45-10.4-12.93.09-1.76.17-3.52.24-5.27a14.19,14.19,0,0,0,12.18-5.14c3.85-4.75,4-12,4.18-17.82l.05-1.78C658.15,726.69,657.26,720.12,656.4,713.77Zm12.53-63.6a14,14,0,0,0-5.32-2.49,7.33,7.33,0,0,1-.08-2.12,2.31,2.31,0,0,1,1.33-1.86,1.89,1.89,0,0,1,1.89.43c1,.8,1.78,2.73,2.35,4.13l.25.64a24.57,24.57,0,0,1,.86,2.37A14.61,14.61,0,0,0,668.93,650.17ZM673.67,665c14.12,37.91,18.69,81.73,13.57,130.24-.49,4.65-1.09,9.14-3,12.95-1.61,3.18-4.86,6.71-9.15,7.08-5.38.46-10-4.4-11.68-9.2-1.82-5.3-1.33-11.28-.85-17.07l0-.47c1.13-7.8,1.26-15.92,1.39-23.78l.08-4.64A468.11,468.11,0,0,0,662.36,709c-.87-10-2.86-19.95-4.79-29.64-1-5-2.05-10.28-2.92-15.44-.63-3.79-1.13-8.05,1-10.65a6.24,6.24,0,0,1,4.93-2,10,10,0,0,1,5.93,2h0C670.12,656,672,660.57,673.67,665Zm25.88,79.18c.1,1.66.2,3.38.15,5-.31,10.61-2.49,16.49-6.66,17.89.22-7.94.16-15.87-.18-23.59,4.69-3.17,4.94-8.87,4.8-14a186.31,186.31,0,0,0-2.07-21.82c-.54-3.72-1.13-7.44-1.72-11.16-.55-3.48-1.11-7-1.61-10.44l-.09-.59c-.47-3.25-1-6.61-1.21-9.91l0-.51c-.15-2-.47-6,.45-8.48a524.64,524.64,0,0,1,9.85,64.69C699,735.31,699.29,739.81,699.55,744.17ZM637.64,639.79a46.15,46.15,0,0,1,2.9,9.84c1.57,7.37,2.52,15,3.47,22.65,1,8.21,1.75,15.12,2,22.18,0,.68.06,1.41.11,2.18.34,6.33.79,14.82-4.29,17.91A609.15,609.15,0,0,0,634.29,635,17.47,17.47,0,0,1,637.64,639.79Zm7.61,186.59a40.71,40.71,0,0,1-4.81-11.92,52.09,52.09,0,0,1-1.08-6.77c1.87,1.34,3.62,4.92,4.95,10.2A24.26,24.26,0,0,1,645.25,826.38Z" transform="translate(-465.76 -405.81)"/></svg>