<svg id="Layer_2" data-name="Layer 2" xmlns="http://www.w3.org/2000/svg" viewBox="0 0 99.67 193.43"><defs><style>.cls-1{fill:#333;}</style></defs><path class="cls-1" d="M74.24,178.17c2.45,1.5,3.09,2.16,4.08-.36,1.75-4.47,2.4-9.35,4.29-13.83,3.12-7.37,6.73-14.51,14.84-17.09,4.53-1.45,9.37-1.77,13.92-3.17,9.59-2.95,14-12,14.74-21.43.18-2.37-.94-6.11-1.84-6.8s-9.81-3.07-13.06-2.45a62.33,62.33,0,0,1-13.44.32C95.5,113,94,111,92.61,110.84s-4.54.73-4.92,2.51.12,2.27,1.42,3.64,5.07,3.71,5.31,7.76-.39,11.86-1.84,15.33-6.72,11.23-8.77,14.41c-1.25,1.65-1.85,3.7-2.76,5.5A42.54,42.54,0,0,1,77,165.88c-2.3,3.09-5,6.44-8.81,7A23.36,23.36,0,0,0,74.24,178.17Zm48.86-61.49a21.54,21.54,0,0,1,1.08,4.34l0-.56.19,2c0-.48-.09-1-.16-1.44.14,2.14.22,4.28.22,6.42a27.29,27.29,0,0,0-.58-5,10.41,10.41,0,0,0-2.19-4.5A3.91,3.91,0,0,0,123.1,116.68Zm-13.65-1.55c4-.73,8.2.32,10.79,3.07,7.22,7.62,0,21.19-10,21.43-6.72.16-10.9-2.87-12-5.13s-.67-8.69.69-11S105.4,115.86,109.45,115.13ZM90,115.7c-.51-1,1.57-1.2,1.57-1.2A41.34,41.34,0,0,1,95,116.94c1.58,1.26,5.88,0,5.92,0-2,.59-2.92,3.84-3.5,5.52v0a48.09,48.09,0,0,0-1.87,9c.11-1.76.23-3.52.35-5.29.14-2.1.22-4.5-1.13-6.29C93.59,118.22,90.91,117.5,90,115.7Zm5.54,19.52c0,4.1,7.78,6.81,10.87,7a41.82,41.82,0,0,0-14.56,4.82A24.4,24.4,0,0,0,95.53,135.22Z" transform="translate(-26.45 -80.19)"/><path class="cls-1" d="M26.8,115.21A26.53,26.53,0,0,0,27.87,128c1.06,3,1.27,4.25,6.38,4.89,2.09.26,4.07.8,6.13.95,1.33.37,5.69,1.81,7.48,5.22a21.1,21.1,0,0,1,2.55,11.06c-.21,3-.21,7.66,1.28,9.78s4,3,5.74,10.21,3,17.23,5.32,23.83a107.36,107.36,0,0,0,5.75,13c.22.43,9.17-2.36,9.88-2.81A3.14,3.14,0,0,0,79.44,203c1.51-2.63.14-6.39-.72-9-1-3.08-1.44-6.79-3.42-9.42-2.55-3.4-8.08-5.32-10.63-8.08s-7.45-11.28-9.15-15.32-4-16.38-4.89-21.7a34.83,34.83,0,0,1-.22-9.57s-1.27,3.4-4.25,4a14.7,14.7,0,0,1-5.71-.11c3,.2,6.1-.44,10-3.93,0,0,1-2.44,1.87-4.72a28,28,0,0,0-.6,3.68,55.81,55.81,0,0,0-.3,5.66,61.76,61.76,0,0,0,.41,6.69c.26,2.36.56,4.82,1,7.39a72.13,72.13,0,0,0,1.84,7.81,69.61,69.61,0,0,0,2.83,7.81c.58,1.28,1.2,2.53,1.92,3.78s1.46,2.35,2.26,3.48a30.25,30.25,0,0,0,5.5,6.05,20.08,20.08,0,0,0,3.29,2.17c1.1.6,2.15,1.15,3.09,1.76a9.09,9.09,0,0,1,2.34,2.07,5.72,5.72,0,0,1,.39.57l.19.36.09.18h0v0l0,.09c.19.46.37.95.54,1.42.66,1.93,1.23,3.72,1.72,5.31s.92,3,1.28,4.13c.7,2.3,1.11,3.61,1.11,3.61l-.17-1c-.11-.64-.27-1.57-.5-2.75s-.5-2.61-.86-4.24-.76-3.48-1.31-5.48c-.14-.51-.29-1-.47-1.55l0-.1v-.05l0-.06v0l-.08-.18-.16-.38c-.14-.26-.3-.57-.47-.83A10.44,10.44,0,0,0,74.52,180c-1-.73-2.07-1.36-3.11-2a21,21,0,0,1-3-2.09,30.4,30.4,0,0,1-5-5.77c-.75-1.08-1.48-2.2-2.14-3.36s-1.21-2.33-1.75-3.56a66.08,66.08,0,0,1-2.81-7.52c-.77-2.54-1.46-5.06-2-7.54s-.94-4.93-1.31-7.23-.65-4.49-.79-6.51-.15-3.9-.15-5.55a33,33,0,0,1,.31-4.27c.15-1.11.32-2,.45-2.59a1.4,1.4,0,0,0,.06-.24l0-.15c.11-.45.18-.7.18-.7l-.1.25a78.84,78.84,0,0,0,.53-11.1,7,7,0,0,0-3.4-5.32c-2.56-1.49-6.39-3.83-8.51-8.09s-3-7.65-6.17-10.84-6.17-6.39-6.81-5.53-.64,1.48,1.92,5.1,7.44,7,7.87,10a9.11,9.11,0,0,1-2.77,7.66C34.25,105,27.65,110.32,26.8,115.21Zm45.31,78.07a4.47,4.47,0,1,1-4.47,4.47A4.47,4.47,0,0,1,72.11,193.28ZM29.78,130.74c-1.28-1.28-1.49-5.53-1.49-5.53a6.78,6.78,0,0,0,1.7,3,20.14,20.14,0,0,0,4.9,3.4C34.46,132.44,31.06,132,29.78,130.74ZM51.52,119c-.69,6.32-5.22,11.88-12.81,10.25-11.8-2.53-10.66-15.93-2.34-21.7C45,101.61,52.44,110.52,51.52,119Z" transform="translate(-26.45 -80.19)"/><path class="cls-1" d="M72.11,200.38a2.63,2.63,0,1,0-2.63-2.63A2.63,2.63,0,0,0,72.11,200.38Z" transform="translate(-26.45 -80.19)"/><path class="cls-1" d="M87,230.77q-2.17-6.95-4.34-13.88c-1-3.23-3.66-8.18-3.29-11.5-2.23,1.17-4.91,2.55-7.45,2.78l-2.32.21s6.59,25.11,13.4,39.36,11.7,24.89,11.7,24.89,1.91,1.91,2.34.42c-1.45-10-2.89-19.34-5.92-29.06Q89,237.38,87,230.77Zm-9.53-3.49s.86,1.93,4.08,9.87,10.73,26,10.73,26C85.59,252.61,77.43,227.28,77.43,227.28Z" transform="translate(-26.45 -80.19)"/><path class="cls-1" d="M63.57,200.92c-.3-.73-.6-1.47-.91-2.2-1,1.44-2.62,3.94-4.68,7.1-1.66,2.55-3.58,5.54-5.6,8.76-1,1.61-2,3.29-3.07,5s-2,3.49-3,5.26-1.85,3.61-2.73,5.41-1.72,3.57-2.53,5.29C39.48,239,38,242.22,36.75,245c-2.5,5.56-4.11,9.29-4.11,9.29s1.51-3.77,3.86-9.4c1.18-2.81,2.57-6.08,4.09-9.58.77-1.74,1.57-3.54,2.4-5.37s1.7-3.66,2.59-5.49,1.83-3.64,2.84-5.39,2-3.45,2.94-5.1c1.94-3.29,3.78-6.33,5.38-8.93,2.54-4.14,4.44-7.15,5.11-8.21-.49-1.16-1-2.31-1.45-3.46.83,2-4.25,8-5.27,9.79-2.47,4.28-4.8,8.63-7,13-4.39,8.67-8.39,17.54-12.24,26.47-.93,2.17-9.52,24.87-5.78,24.9,1.57,0,2.21-3,2.74-4.13,1.6-3.26,3.59-6.56,5.42-9.52q6.06-9.85,11.91-19.81c3.85-6.56,7.82-13,11.59-19.66,1.92-3.37,4.53-6.13,3.22-9.89Q64.3,202.72,63.57,200.92Z" transform="translate(-26.45 -80.19)"/></svg>