<svg id="Layer_1" data-name="Layer 1" xmlns="http://www.w3.org/2000/svg" viewBox="0 0 349.59 517.76"><path d="M512.86,260.42l-2.42.43-2.55.46c-.88.13-1.75.4-2.65.61-1.78.44-3.65.85-5.48,1.47l-2.79.87c-.93.31-1.86.65-2.78,1s-1.85.67-2.75,1.05l-2.7,1.12-1.33.56-1.29.61-2.53,1.21c-1.65.82-3.22,1.65-4.68,2.48s-2.84,1.64-4.08,2.44-2.36,1.54-3.34,2.21-1.81,1.31-2.49,1.83c-1.37,1.05-2.09,1.71-2.09,1.71l2.38-1.23c1.53-.77,3.7-1.86,6.32-3.11,1.31-.63,2.75-1.27,4.25-2s3.13-1.36,4.77-2.11,3.39-1.43,5.16-2.11l2.66-1.06c.89-.35,1.8-.65,2.71-1s1.8-.68,2.7-1l2.72-.9,1.34-.44c.44-.16.89-.31,1.33-.44l2.63-.79c1.73-.54,3.41-1,5-1.41l2.33-.63c.76-.19,1.49-.35,2.2-.52l3.86-.91c1.16-.21,2.17-.42,3-.59,1.67-.34,2.63-.57,2.63-.57s-1,0-2.69,0c-.86,0-1.9,0-3.1.08s-2.53.22-4,.39C514.42,260.25,513.65,260.32,512.86,260.42Z" transform="translate(-337.69 -236.03)"/><path d="M401.88,282.74c-.56.87-1.07,1.72-1.5,2.51s-.82,1.54-1.14,2.2-.57,1.25-.77,1.74c-.4,1-.57,1.57-.57,1.57l1.05-1.28c.66-.81,1.61-2,2.76-3.31.56-.68,1.21-1.39,1.87-2.16s1.38-1.54,2.1-2.37,1.49-1.66,2.3-2.47,1.59-1.69,2.44-2.49l1.23-1.23,1.27-1.18c.42-.39.82-.8,1.24-1.17l1.25-1.09c.41-.36.81-.73,1.21-1.07l1.2-1,1.12-.94c.37-.31.74-.57,1.09-.85.7-.52,1.33-1.05,1.9-1.49s1.1-.79,1.52-1.1c.85-.62,1.32-1,1.32-1s-.58.17-1.58.51c-.5.18-1.11.39-1.79.66s-1.43.65-2.24,1.06c-.41.21-.84.41-1.27.65l-1.31.78-1.36.85c-.47.29-.9.64-1.37,1a34,34,0,0,0-2.76,2.17l-1.36,1.19-1.31,1.27c-.87.84-1.68,1.75-2.47,2.65-.4.44-.77.9-1.13,1.36s-.72.91-1.07,1.36C403.09,281,402.44,281.86,401.88,282.74Z" transform="translate(-337.69 -236.03)"/><path d="M566.69,452.72c.26.65.63,1.39,1,2.28s.76,1.85,1.19,2.91c.22.54.41,1.11.61,1.68s.47,1.16.65,1.79.43,1.24.65,1.88.39,1.31.6,2,.45,1.34.62,2,.37,1.41.57,2.11.34,1.44.53,2.16.35,1.45.52,2.18c.29,1.47.58,2.93.86,4.38s.47,2.89.7,4.29.35,2.77.55,4.08c.12.65.13,1.29.21,1.9s.14,1.22.2,1.79c.14,1.16.32,2.23.37,3.18s.19,1.79.28,2.48c.19,1.38.35,2.2.35,2.2s.31-.74.78-2.08q.35-1,.78-2.43a25.45,25.45,0,0,0,.72-3.22c.19-1.2.45-2.5.56-3.88s.17-2.86.2-4.39c0-.76-.06-1.53-.1-2.32s-.1-1.58-.17-2.38c-.18-1.59-.49-3.2-.77-4.81-.44-1.58-.78-3.18-1.33-4.71a37.24,37.24,0,0,0-1.77-4.39c-.34-.69-.63-1.38-1-2s-.72-1.27-1.09-1.88-.75-1.17-1.13-1.7-.73-1.08-1.13-1.54a31.19,31.19,0,0,0-2.21-2.51c-.68-.72-1.36-1.28-1.89-1.75s-1-.77-1.34-1-.45-.28-.49-.3.1.22.25.52S566.38,452.11,566.69,452.72Z" transform="translate(-337.69 -236.03)"/><path d="M508.57,581.32c-.8-.63-1.92-1.55-3.18-2.71-.64-.58-1.3-1.22-2-1.91s-1.43-1.42-2.19-2.18l-2.31-2.38c-.74-.78-1.48-1.62-2.18-2.51-1.44-1.75-2.86-3.62-4.39-5.26a22.9,22.9,0,0,0-2.38-2.26c-.42-.35-.76-.61-1.2-.92s-.78-.53-1.16-.77a27.42,27.42,0,0,0-3.77-2c-.94-.43-1.5-.62-1.5-.62s.43.4,1.2,1.08,1.83,1.67,3.07,2.86c.63.6,1.26,1.25,1.93,2s1.26,1.49,1.9,2.33c1.29,1.67,2.61,3.58,4.11,5.43a29.12,29.12,0,0,0,2.44,2.66c.84.8,1.69,1.56,2.54,2.27a36.15,36.15,0,0,0,4.93,3.57,23.85,23.85,0,0,0,3.87,1.9c.48.18.88.3,1.14.38l.41.11-.33-.26C509.28,581.9,509,581.63,508.57,581.32Z" transform="translate(-337.69 -236.03)"/><path d="M395.72,530.38l.15,1.1c.06.42.08.9.14,1.41s.09,1.06.1,1.65l.05.89c0,.31,0,.62,0,.93,0,.63,0,1.28,0,1.94s0,1.32-.08,2-.08,1.34-.14,2-.11,1.32-.19,2-.15,1.25-.2,1.84-.16,1.14-.22,1.66-.09,1-.16,1.44-.1.8-.13,1.12c-.06.63-.06,1-.06,1s.23-.29.59-.82c.18-.26.4-.58.62-1a9.89,9.89,0,0,0,.71-1.31c.23-.5.48-1,.71-1.62s.41-1.22.61-1.88.31-1.37.44-2.08.17-1.45.24-2.19,0-1.48,0-2.2c0-.37-.07-.73-.11-1.08a7.18,7.18,0,0,0-.15-1c-.06-.34-.12-.68-.2-1s-.17-.64-.26-1a14.81,14.81,0,0,0-.62-1.68,12,12,0,0,0-.7-1.35,9.62,9.62,0,0,0-.64-1,6.13,6.13,0,0,0-.68-.77l.05.27Z" transform="translate(-337.69 -236.03)"/><path d="M551.42,475.51c-18.89,4.48-31.84-.45-31.84-.45a25.46,25.46,0,0,0,14.07-3.91c-11.35,2-25.32-.79-38.6-1.61-6.52-.4-15.22,1.74-23.95,4.23a18.08,18.08,0,0,1-5.8.67,53.1,53.1,0,0,1-11.29-1.8s1.5,2.11,8.11,3.74h0a20.7,20.7,0,0,1-7.34.78,51,51,0,0,1-12.83-2.33s1.53,2.53,7.24,4.87c-1.07.21-2.09.39-3.07.51-13.4,1.77-22.14-9.61-22.14-9.61a15.87,15.87,0,0,0,4.79,9.64c-6.18-1.17-11.33-7.12-11.33-7.12,4.1,11.13,15.44,14.48,15.44,14.48-6.82-.45-12.65-1.31-12.65-1.31s4.27,5,13.26,6.3l.76.12a17.43,17.43,0,0,1,9.42,4.79,119.18,119.18,0,0,1,8.81,9.44,40.88,40.88,0,0,0-3.54-9.4,45.8,45.8,0,0,1,8.88,5.64,137.43,137.43,0,0,0,11.77,8.39,30.38,30.38,0,0,0,12.67,4.75c18.42,2.32,30.16-10.64,30.52-11-15,8.44-36,2.57-36,2.57,24.72,2.16,33.43-11.28,33.69-11.69-5,3.5-15.55,4.63-16.21,4.7,7.48-2.44,14.87-7.57,18.32-10.17a4.44,4.44,0,0,1,4.33-.61c19.86,7.76,28.52-3.18,28.52-3.18-10.73,4.25-24.62-.57-24.62-.57C542.4,487.83,551.42,475.51,551.42,475.51ZM475,498.84a13.92,13.92,0,0,1-7.82-3.14l-4.83-3.93a81.82,81.82,0,0,1,8-2.64.82.82,0,0,1,.93,1.21,5.19,5.19,0,0,0-.85,4c.57,2.44,3.16,4.1,6.57,4.55C476.31,498.89,475.64,498.88,475,498.84Zm6.15-3.7a3.44,3.44,0,1,1,3.67-3.21A3.45,3.45,0,0,1,481.11,495.14Zm8.43.11c2-1.76,3-3.91,2.54-5.94a4.94,4.94,0,0,0-2.1-2.94.4.4,0,0,1,.21-.73,65.49,65.49,0,0,1,11.27.22A46.63,46.63,0,0,1,489.54,495.25Z" transform="translate(-337.69 -236.03)"/><path d="M485.64,527.38c.37,0,.72,0,1.06-.06.66-.05,1.24-.12,1.71-.19.95-.13,1.49-.26,1.49-.26s-.49-.29-1.33-.72c-.43-.21-.95-.45-1.54-.71s-1.24-.55-1.95-.88-1.47-.63-2.28-1-1.63-.74-2.5-1.1-1.72-.8-2.63-1.15c-.45-.18-.88-.41-1.33-.61l-1.34-.62c-.9-.4-1.75-.87-2.63-1.26s-1.72-.87-2.51-1.32c-.41-.22-.8-.45-1.2-.65s-.76-.45-1.14-.65c-.76-.41-1.42-.86-2.1-1.23s-1.25-.77-1.77-1.11-1-.66-1.38-.92-.7-.46-.9-.61l-.33-.24a9.3,9.3,0,0,0,.45,1.47,16.65,16.65,0,0,0,.76,1.58,17.24,17.24,0,0,0,1.23,1.91,19.36,19.36,0,0,0,1.73,2c.32.35.67.7,1,1s.76.66,1.16,1a11.87,11.87,0,0,0,1.26,1c.43.31.88.62,1.33.92.94.54,1.9,1.09,2.89,1.56a32.59,32.59,0,0,0,3,1.23c.51.17,1,.32,1.53.47a13.39,13.39,0,0,0,1.51.39c1,.21,2,.38,2.89.52s1.81.13,2.62.16Z" transform="translate(-337.69 -236.03)"/><path d="M416.37,638.29c-.45.33-1,.74-1.61,1.24s-1.27,1.09-2,1.76a31.44,31.44,0,0,0-4.23,5.13,30.7,30.7,0,0,0-1.89,3.29,31.37,31.37,0,0,0-1.51,3.67l-.28.89-.28,1c-.19.64-.32,1.26-.46,1.88a36.26,36.26,0,0,0-.62,3.68,43.16,43.16,0,0,0-.26,6.54,40.63,40.63,0,0,0,.42,4.6c.07.56.17,1,.22,1.3l.1.46.18-.43c.11-.28.3-.7.48-1.22.4-1,.91-2.56,1.45-4.35s1.11-3.87,1.72-6.05c.31-1.09.63-2.2,1-3.34q.26-.82.51-1.68l.26-.82.3-.88c.35-1.08.76-2.18,1.18-3.25s.88-2.11,1.34-3.12c.92-2,1.88-3.91,2.7-5.56l1.15-2.27c.35-.68.63-1.3.88-1.79.49-1,.74-1.62.74-1.62l-.4.25C417.21,637.73,416.82,638,416.37,638.29Z" transform="translate(-337.69 -236.03)"/><path d="M687.19,473.87c-.06-.71-.13-1.4-.23-2.1s-.25-1.53-.36-2l-.21-1-.2-.88c-.13-.58-.27-1.16-.4-1.73-1.07-4.58-2.09-8.9-3-12.9-.48-2-.92-3.91-1.36-5.72-.11-.47-.23-.93-.34-1.39s-.27-1-.44-1.54a24.54,24.54,0,0,0-5-8.88l.1,0c.4-6.25.73-12.52.92-18.79h0l.11-.13-.1-.06h0c.13-4.19.21-8.4.2-12.62,0-.95,0-1.91,0-2.87q0-5.55-.28-11.12c-.06-1.49-.14-3-.23-4.48q-.42-7.29-1.28-14.59h0c0-.42-.09-.82-.14-1.24-.16-1.39-.36-2.78-.56-4.16s-.42-2.72-.62-4.08c-.5-2.74-1-5.49-1.59-8.2-.49-2.25-1-4.5-1.61-6.72-.38-1.47-.78-2.92-1.22-4.37q-.74-2.58-1.6-5.11c-.4-1.18-.82-2.35-1.25-3.52-1-2.7-2.09-5.36-3.29-8A116.13,116.13,0,0,0,652.62,307a126.45,126.45,0,0,0-22.85-24.74l-1.62-1.33-.82-.67-.4-.33-.29-.23-.2-.16-3.25-2.46c-2.19-1.64-4.27-3.3-6.66-4.85L613,269.82c-1.17-.77-2.32-1.62-3.51-2.3l-7.13-4.34q-2.24-1.28-4.5-2.47c-3.2-1.72-6.43-3.36-9.72-4.91h0q-7.83-3.68-15.95-6.67l-3.92-1.4c-1.31-.46-2.6-1-3.94-1.34l-8-2.41c-2.69-.7-5.38-1.36-8.07-2l-2-.5-2-.41-.14,0-4-.79-4.08-.81-2.8-.42h0l-1.29-.19-4.11-.62-2.05-.31-2.07-.21-8.27-.86-8.29-.48-2.07-.13c-.69,0-1.39,0-2.08,0l-4.14-.06L494.7,236c-1.38,0-2.76.07-4.14.09-.62,0-1.26,0-1.88.06h0c-2.13,0-4.27.1-6.4.21l-4.4.31h0L474,237l-2.16.16-2,.22-4,.45-4.06.46c-1.35.15-2.74.4-4.12.6l-4.13.64-2.08.32c-.69.1-1.38.22-2,.37l-8.15,1.61-1.74.4h0a233.1,233.1,0,0,0-25.73,7.41c-1.47.52-2.93,1.05-4.39,1.6-1.1.42-2.21.84-3.31,1.29a183.36,183.36,0,0,0-26.76,13.16,148.62,148.62,0,0,0-13.91,9.45,97.93,97.93,0,0,0-10.2,9c-.81.81-1.62,1.64-2.39,2.5a70.4,70.4,0,0,0-5.45,6.77,57.44,57.44,0,0,0-4.54,7.55,47.06,47.06,0,0,0-4.94,17.21,41.88,41.88,0,0,0,2.49,17.9,52.32,52.32,0,0,0,9,15.26,68.66,68.66,0,0,0,6,6.32l1.58,1.46.3.26.19.17.39.32s.78.65.79.67a3.84,3.84,0,0,1,1.24,3.61L356,384.32a101.43,101.43,0,0,0-1.78,18.4L354,441.29a42.42,42.42,0,0,1-3.58,16.94L348.8,462a32.73,32.73,0,0,0-2.68,15.32l.2,2.93a17,17,0,0,0,6.19,12l7.19,5.92a5.27,5.27,0,0,1,1.93,4.16l-.29,14.48a82.06,82.06,0,0,0,1.54,17.45c1.49,7.5,4.18,17.58,8.76,25.85a12.92,12.92,0,0,1,1.59,6.91,298.44,298.44,0,0,0,.46,39.53c-.67.49-1.33,1-2,1.41-1.72,1.16-3.4,2.22-5,3.09a3.4,3.4,0,0,1-2.3.32l-.07,0a6,6,0,0,1-1.93-.83,3.91,3.91,0,0,1-1.35-1.61,6.46,6.46,0,0,1-.55-2.61,11.15,11.15,0,0,1,.37-3.09,27.3,27.3,0,0,1,2.41-6.18c.54-.92,1.16-2,1.69-2.89a22.61,22.61,0,0,0,1.39-2.79,19.81,19.81,0,0,0,1.19-4.46c.08-.53.15-1,.17-1.25s.05-.45.05-.45-.43.75-1.3,2a36.61,36.61,0,0,1-4,4.63,27.66,27.66,0,0,1-3,2.6,23.89,23.89,0,0,1-3.72,2.33c-.31.16-.62.29-.92.44l-1.17.48a17.33,17.33,0,0,0-2.49,1.22,12.42,12.42,0,0,0-4.12,4.1,17.94,17.94,0,0,0-2.07,5.25,20.26,20.26,0,0,0-.66,5.39,10.87,10.87,0,0,0,1.45,5.43c.1.17.21.33.32.5a26.68,26.68,0,0,1,2.19,3.41c.48.92,1.07,2,1.79,3.06.46.73,1,1.49,1.55,2.27a37.63,37.63,0,0,0,3,3.58,35.32,35.32,0,0,0,3.56,3.27,33.33,33.33,0,0,0,8.5,5,32.78,32.78,0,0,0,4.2,1.37,37.07,37.07,0,0,0,6.8,1.07c1.23.09,2.5.11,3.82.08a102.94,102.94,0,0,0-4.62,33,44.19,44.19,0,0,1,4.29-7.53c.54,11.92,2.2,26,6.4,38.5a152.19,152.19,0,0,1,4.35-23c-.3,2-4.81,35.3,27.39,57l-1-5.68c2.16,3.63,10.14,10,37.5,18L450,746.69c.36.21,14.45,8.19,39.22,7l-9.81-5.16v-.06s28.08,8.38,49.7,1.67l-20-5.3,0,0s29.5,3,46.14-4.27l-19.91-2.42s28.25-.63,48.41-16.41l-16,.89c.9-.27,30.18-9,42.33-22.33l-15.58,3.39s25.5-10.58,33.4-23.81L613.81,685c.77-.46,25.51-15.24,33-36.12l-13.57,7.49S654,637.54,655,615.6a62.82,62.82,0,0,1-11.68,12.89l0-.14c.37-1.52.61-3.07.93-4.6l.44-2.31c.13-.77.22-1.55.34-2.32s.2-1.37.3-2.06c.36-2.68.61-5.38.77-8.07q.26-4.29.25-8.57l0-2.35c0-.78,0-1.56-.07-2.35l-.16-2.9-.1-1.78c-.29-3.1-.56-6.22-1-9.29a143.17,143.17,0,0,0-10.15-35.89l-.76-1.77a10.83,10.83,0,0,0,3,.63c.21,0,.49,0,.75,0h.68l.45,0h.1l.24,0h.06l.26,0c.68-.13,1.38-.23,2.07-.4s1.38-.35,2-.59,1.36-.45,2-.75a30.24,30.24,0,0,0,7.33-4.5,41,41,0,0,0,6-6.2c.87-1.1,1.83-2.5,2.44-3.42a12.91,12.91,0,0,1,2-2.26,10.2,10.2,0,0,1,1.19-.91l.36-.24.39-.24.87-.54,1.72-1.07.44-.27.51-.33c.38-.26.76-.53,1.12-.82a15.1,15.1,0,0,0,3.64-4.2c.24-.4.45-.82.65-1.24l.31-.71.22-.56.71-1.92c1.89-5.14,3.79-10.26,5.66-15.32.92-2.52,1.85-5,2.76-7.5.45-1.27.9-2.53,1.36-3.77a33.28,33.28,0,0,0,1.14-4.3A32.39,32.39,0,0,0,687.19,473.87ZM363,309.51c-.34.76-.76,1.51-1.05,2.32-.23.63-.48,1.26-.71,1.9a42.86,42.86,0,0,0-1.74,5.2,23.65,23.65,0,0,0-.64,2.51L358.3,324a56.54,56.54,0,0,0-.89,10.48c0,1.77.16,3.5.27,5.23.1.89.25,1.76.35,2.65.08.44.2,1.18.27,1.62.06.28.11.54.16.81a46,46,0,0,0,1.09,4.56c-1.18-1.19-2.32-2.43-3.37-3.72a43.49,43.49,0,0,1-7.5-12.66,32.75,32.75,0,0,1-2-14.12,38.24,38.24,0,0,1,4-13.91,49.23,49.23,0,0,1,3.18-5.4c-.2.81-.38,1.61-.54,2.41-.36,1.66-.64,3.33-.87,5s-.38,3.27-.49,4.85c-.05.79-.07,1.57-.09,2.33s0,1.5,0,2.21c0,1.45.1,2.81.23,4.05s.3,2.39.42,3.39.34,1.86.49,2.57c.33,1.3.52,2.08.54,2.19-.07-.92-2.53-36.49,40.44-60.79-.18.26-.34.51-.51.77-.54.84-1.08,1.59-1.51,2.35s-.87,1.39-1.18,2-.61,1.15-.8,1.62L389.5,276s19.94-14.78,31.23-19.29c-1.05,1-2.05,1.95-3,2.84s-1.88,1.94-2.71,2.81-1.51,1.76-2.14,2.5a20.08,20.08,0,0,0-1.55,2c-.76,1-1.23,1.67-1.28,1.75s23.79-15.09,45.2-20.13c-1.22.74-2.35,1.55-3.44,2.26s-2.22,1.62-3.21,2.33c-.25.18-.48.36-.71.54s-.45.38-.67.55l-1.2,1-1,.9-.83.83-1.54,1.56s27.79-13.06,64.21-13.19l-.43.13-2.08.67c-1.36.41-2.63.88-3.79,1.3-.58.22-1.13.41-1.66.62l-1.48.63c-.92.39-1.72.72-2.36,1.07l-2,1s38.46-3.94,69.92,4.6l-2.75.07-2.95.09-2.88.14-2.78.13-2.65.2c-1.73.11-3.35.23-4.85.38l-4.09.4-3.15.38-2.73.34,2.75.21,3.13.25c1.22.11,2.58.26,4.07.41s3.09.36,4.78.57l2.62.34,2.71.41,2.8.42,2.86.49c1.92.31,3.88.68,5.82,1.06s3.89.78,5.8,1.16,3.77.83,5.57,1.23,3.56.82,5.2,1.24,3.2.79,4.62,1.18c6.68,1.74,12.1,5.1,17.92,8.63,1.16.66,2.2,1.45,3.29,2.17l3.26,2.2c2.17,1.4,4.34,3.12,6.5,4.74l3.25,2.46,3,2.44A117.16,117.16,0,0,1,646,313c-1.72-1.12-3.48-2.21-5.26-3.27-1-.57-1.92-1.11-2.88-1.66l-2.9-1.59c-1.94-1-3.85-2-5.74-2.84a90.28,90.28,0,0,0-10.56-4.12l-2.27-.69-2.07-.54c-1.29-.35-2.45-.53-3.38-.74s-1.69-.29-2.2-.37l-.77-.12.74.25c.49.16,1.2.38,2.1.7s2,.72,3.18,1.27c.59.27,1.23.55,1.91.84l2.08,1a88.86,88.86,0,0,1,9.45,5.6c1.66,1.12,3.35,2.34,5,3.6.82.65,1.66,1.29,2.5,1.94s1.66,1.35,2.47,2a170.8,170.8,0,0,1,16.73,16.29l1.88,2.13c-1.14-.7-2.27-1.42-3.45-2.06s-2.62-1.51-4-2.18l-2-1c-.65-.32-1.31-.62-1.94-.91l-1.88-.89c-.62-.27-1.24-.52-1.84-.76-1.19-.48-2.3-1-3.38-1.32l-2.87-1c-.87-.25-1.64-.46-2.26-.65l-2-.55,1.76,1,2,1.15,2.5,1.64c.93.57,1.88,1.3,2.88,2,.51.37,1,.74,1.54,1.13l1.56,1.26c.53.43,1.07.85,1.6,1.29l1.59,1.39c1.08.92,2.12,1.92,3.17,2.9s2,2,3,3,1.92,2,2.82,3,1.75,2,2.52,2.9,1.52,1.83,2.17,2.66,1.25,1.6,1.78,2.29a7.82,7.82,0,0,1,1.3,2.77c.28,1.13.53,2.25.78,3.38a.8.8,0,0,1,0,.15l-.46-.38c-.8-.66-1.59-1.36-2.45-2-1.72-1.29-3.42-2.7-5.29-4-.93-.64-1.85-1.3-2.78-2s-1.93-1.23-2.89-1.84-1.9-1.25-2.89-1.79l-2.95-1.67c-1.91-1.15-3.93-2.06-5.82-3s-3.8-1.73-5.58-2.49c-.89-.37-1.75-.75-2.6-1.08l-2.49-.87c-1.6-.54-3-1.08-4.36-1.47l-3.41-.93-2.94-.8,2.78,1.26,3.19,1.44c1.22.57,2.54,1.34,4,2.11l2.27,1.22c.76.45,1.53,1,2.34,1.45,1.59,1,3.31,2,4.95,3.24s3.43,2.37,5.09,3.75l2.52,2c.85.66,1.64,1.42,2.45,2.13s1.63,1.43,2.43,2.15l2.3,2.25c1.55,1.45,2.93,3,4.32,4.48.69.73,1.32,1.5,2,2.23s1.28,1.42,1.84,2.15c1.15,1.43,2.25,2.77,3.19,4.06s1.8,2.46,2.54,3.51c1.43,2.1,2.56,5.27,2,7.81a3.9,3.9,0,0,1-1.17-.66c-1.56-1.1-3.28-2.15-5-3.28s-3.62-2.2-5.51-3.28l-2.88-1.57c-.49-.27-1-.54-1.46-.79l-1.49-.74-3-1.46c-1-.49-2-.9-3-1.34l-2.95-1.29c-1-.38-2-.75-2.94-1.13l-2.84-1.06-2.77-.88c-1.8-.56-3.48-1.12-5.09-1.47l-4.33-1.06-3.39-.58-2.93-.51s1,.36,2.81,1l3.21,1.12,4,1.72c1.49.6,3,1.41,4.67,2.24l2.51,1.27,2.55,1.48c.86.49,1.73,1,2.61,1.52l2.61,1.69c.87.58,1.77,1.11,2.62,1.74l2.57,1.85,1.28.92c.43.31.84.65,1.25,1l2.47,1.93c1.61,1.3,3.15,2.63,4.64,3.91s2.89,2.57,4.17,3.84l1.88,1.82c.6.59,1.16,1.18,1.71,1.73,1.11,1.1,2,2.17,2.92,3.09h0A5.23,5.23,0,0,1,668,394.3c0,.47,0,.94,0,1.41-1.28-.75-2.66-1.51-4.1-2.32-1.69-.94-3.51-1.88-5.38-2.85s-3.82-2-5.85-2.85l-3-1.39c-1-.47-2.07-.88-3.09-1.33s-2.07-.88-3.1-1.3l-3.11-1.19c-2-.82-4.11-1.51-6.09-2.18-1-.33-2-.7-2.92-1l-2.83-.85-2.67-.79c-.87-.23-1.72-.43-2.53-.63-1.62-.4-3.09-.79-4.41-1.09l-3.43-.68-3-.59,2.85,1.06,3.26,1.21c1.24.5,2.63,1.11,4.13,1.75.76.33,1.56.66,2.36,1l2.48,1.2c.84.39,1.71.81,2.6,1.24s1.76.93,2.68,1.4c1.8,1,3.67,1.94,5.51,3.05l2.79,1.61L643.9,390c.92.59,1.84,1.13,2.73,1.74l2.68,1.8c1.78,1.16,3.45,2.44,5.11,3.59s3.19,2.38,4.64,3.52,2.82,2.23,4,3.27,2.35,2,3.33,2.83l0,0a4.9,4.9,0,0,1,1.63,3.75l0,1.2c-1.44-.81-3.06-1.62-4.76-2.49s-3.24-1.6-5-2.41-3.53-1.64-5.38-2.4l-2.79-1.18-2.84-1.11c-1.88-.77-3.8-1.44-5.68-2.1s-3.76-1.26-5.56-1.84-3.58-1.06-5.25-1.53l-2.43-.68-2.29-.54c-1.48-.34-2.81-.68-4-.93l-3.12-.6-2.7-.52,2.57,1,2.94,1.13c1.12.45,2.37,1,3.75,1.61l2.13.92c.72.36,1.47.71,2.23,1.08,1.54.75,3.17,1.49,4.79,2.38s3.35,1.73,5,2.72,3.4,1.92,5.07,3l2.5,1.53,2.45,1.6c1.62,1,3.17,2.14,4.67,3.17s2.92,2.1,4.27,3.1,2.59,2,3.72,2.88,2.16,1.75,3.06,2.49l0,0a5.88,5.88,0,0,1,2.08,4.78l-.09,1.58c-4.26-2.14-12.44-5.19-20.58-2.49-11.76,3.92-17.12,1.88-17.12,1.88,7.12-.5,10-4.47,10-4.47-18.7,6-40.11-1.18-40.94-1.47,4.8.93,10.52-1.6,10.52-1.6-14.63.54-27.18-6.58-27.18-6.58,11.12,2,12.22-.08,12.22-.08-27.7-4.89-41.51-29.55-45.87-39.05a2.66,2.66,0,0,1-.2-.68c1.56.87,3.59,2,6,3.22,1.42.73,2.94,1.55,4.58,2.36s3.35,1.69,5.14,2.56,3.65,1.76,5.55,2.65,3.83,1.75,5.76,2.62,3.9,1.68,5.82,2.5,3.84,1.55,5.7,2.26,3.65,1.38,5.37,2l4.87,1.62,4.15,1.21c1.23.38,2.34.59,3.23.83l2.81.67-2.68-1.08c-.85-.36-1.9-.72-3.05-1.28l-3.9-1.79c-1.4-.7-2.91-1.47-4.51-2.29s-3.25-1.76-5-2.69-3.46-2-5.23-3-3.52-2.18-5.31-3.27-3.51-2.23-5.21-3.38-3.4-2.25-5-3.37-3.17-2.18-4.62-3.22c-1-.7-2-1.4-2.87-2.06l1.18,0c.89,0,1.81.07,2.75.12s1.89.1,2.88.19l3,.29c.5.05,1,.11,1.52.15l1.52.22,3.09.46c1,.15,2,.38,3.09.58s2.08.39,3.09.63l3,.77c2,.47,4,1.13,5.87,1.73s3.7,1.3,5.42,2l2.49,1,2.27,1.06c1.44.69,2.8,1.29,4,1.9l3,1.68,2.58,1.46-2.26-1.91-2.64-2.21c-1-.82-2.28-1.67-3.6-2.64l-2.1-1.5-2.33-1.45c-1.61-1-3.29-2.09-5.14-3s-3.71-2-5.72-2.9l-3-1.38c-1-.45-2.06-.83-3.09-1.25s-2.07-.85-3.12-1.22-2.1-.71-3.15-1.07l-1.55-.53-1.57-.46c-1-.31-2.07-.6-3.09-.89s-2-.52-3-.77c-.6-.13-1.18-.28-1.76-.42,1.83-.31,3.75-.62,5.76-.84,1.09-.14,2.2-.22,3.32-.33s2.26-.16,3.41-.2,2.31-.1,3.49-.09l1.75,0,1.77,0c2.36.05,4.72.22,7,.44s4.61.53,6.82.89,4.34.79,6.33,1.25c1,.23,2,.46,2.93.72s1.85.49,2.72.73c1.72.54,3.32,1,4.71,1.49s2.62.87,3.6,1.28l3.1,1.19-2.87-1.69c-.91-.56-2.06-1.14-3.37-1.87s-2.82-1.42-4.47-2.25c-.83-.4-1.71-.78-2.61-1.2s-1.86-.8-2.84-1.2c-2-.82-4.05-1.6-6.25-2.35s-4.5-1.45-6.87-2.08-4.8-1.2-7.26-1.66l-1.85-.36L580,353c-1.23-.21-2.47-.36-3.7-.52s-2.46-.26-3.67-.38-2.43-.2-3.61-.24c-1.49-.09-2.94-.12-4.36-.13,1.92-.76,4-1.53,6.12-2.2,2.36-.78,4.85-1.44,7.41-2.07s5.19-1.11,7.85-1.48l2-.29,2-.2c1.33-.17,2.66-.25,4-.33,2.65-.17,5.28-.21,7.83-.15,1.27,0,2.53.09,3.75.15s2.44.17,3.6.29c2.36.19,4.55.56,6.59.84l2.92.55,1.35.25,1.27.29c1.63.4,3.08.68,4.24,1l3.66,1-3.48-1.53c-1.11-.52-2.5-1-4.08-1.64l-1.23-.48-1.32-.45-2.86-1c-2-.58-4.19-1.28-6.55-1.81-1.18-.3-2.39-.59-3.64-.83s-2.52-.53-3.84-.72c-2.62-.44-5.35-.79-8.15-1-1.4-.11-2.81-.22-4.23-.26l-2.14-.07h-2.15c-2.87,0-5.74.15-8.57.37s-5.61.59-8.28,1.07-5.26,1-7.7,1.6-4.71,1.27-6.8,1.95c-2.79.91-5.23,1.85-7.26,2.7l.89-.7c1.26-1,2.68-2,4.21-3.11s3.16-2.13,4.92-3.15,3.6-2,5.53-3c1-.45,1.93-.94,2.94-1.35l1.5-.64,1.52-.6c2-.79,4.13-1.44,6.21-2,1-.28,2.09-.52,3.13-.77s2.07-.42,3.1-.59,2-.3,3-.42l2.93-.25,2.79-.1c.91,0,1.78,0,2.62,0s1.65.08,2.41.14,1.51.1,2.19.19c1.36.2,2.57.33,3.54.53l3.07.61L600.57,331c-.94-.36-2.11-.7-3.44-1.14-.67-.22-1.4-.38-2.17-.59s-1.57-.42-2.43-.57-1.74-.37-2.67-.51l-2.9-.41-3.09-.27c-1-.06-2.14-.08-3.25-.12s-2.22,0-3.37.05-2.29.13-3.46.23a68.4,68.4,0,0,0-7,1L565,329l-1.75.41c-1.16.26-2.29.59-3.43.9-2.26.65-4.47,1.38-6.58,2.17s-4.09,1.66-6,2.5-3.64,1.74-5.23,2.6l-1.43.78a31.14,31.14,0,0,1,2.67-2.76,37.69,37.69,0,0,1,5.34-4.09l.76-.5.79-.44c.54-.29,1.07-.62,1.62-.91s1.13-.54,1.71-.82c.28-.14.57-.28.87-.41l.9-.37,1.83-.74,1.89-.62c1.27-.46,2.6-.75,3.93-1.12.67-.19,1.35-.31,2-.44l2-.39c1.38-.23,2.77-.38,4.15-.58s2.78-.2,4.16-.31,2.88-.06,4.31-.09h1.24l.59,0,2,.07,2,.09,1.91.16,3.67.34,3.44.48c2.21.26,4.22.69,6,1,.9.17,1.74.31,2.52.48L605,327c2.41.54,3.84.89,4,.92l-3.7-1.84-2-1c-.72-.35-1.51-.69-2.35-1.07-1.7-.74-3.58-1.64-5.73-2.43L592,320.24,588.33,319l-1.91-.64c-.65-.18-1.32-.36-2-.56l-2-.57-1-.29-1.07-.24c-1.43-.31-2.89-.68-4.38-.95s-3-.52-4.58-.74-3.14-.36-4.75-.47l-2.41-.11c-.82,0-1.63-.09-2.46-.05-1.62,0-3.28,0-4.93.19l-2.48.21-2.46.35-1.24.19c-.41.07-.81.17-1.22.24l-2.43.53c-.8.2-1.59.44-2.38.66l-1.2.33-1.16.4a54.22,54.22,0,0,0-21.61,13.65,50.13,50.13,0,0,0-3.88,4.52c-.5.66-.94,1.27-1.31,1.84a54.68,54.68,0,0,1,3.69-5.44,53.86,53.86,0,0,1,14.1-12.81,55.56,55.56,0,0,1,9.89-4.9,61.56,61.56,0,0,1,11.25-3.1l1.47-.28,1.48-.2,1.48-.19.74-.11.18,0h.13l.39,0,6.25-.55c1-.1,2-.14,3-.2s2-.09,3-.15,2-.12,3-.13l2.94,0,2.9,0c1,0,1.89.05,2.83.07,1.87.05,3.71.09,5.48.25s3.51.23,5.18.45,3.29.36,4.82.64c.77.11,1.53.24,2.26.36s1.45.29,2.15.43l2,.42,1.9.5a61.93,61.93,0,0,1,6.28,2,37.64,37.64,0,0,1,3.87,1.76c.44.23.77.42,1,.55l.3.2a2,2,0,0,0-.27-.24c-.2-.16-.5-.4-.9-.69a37.84,37.84,0,0,0-3.66-2.29,59.1,59.1,0,0,0-6.07-2.88l-1.86-.76-2-.72c-.69-.24-1.4-.51-2.12-.73l-2.26-.69c-1.53-.5-3.15-.9-4.83-1.33s-3.43-.8-5.24-1.18-3.66-.71-5.57-1c-1-.16-1.92-.32-2.9-.46s-2-.26-3-.38l-3-.38c-1-.13-2-.19-3.09-.29l-3.14-.27c-1.06-.09-2.13-.18-3.15-.22l-6.26-.31h-5l-1.66.09A71.73,71.73,0,0,0,540,303.89a68.89,68.89,0,0,0-12.63,4.23,66.74,66.74,0,0,0-11,6.24,70.73,70.73,0,0,0-17.58,17.81c.24-1,.52-2.09.87-3.19a40.14,40.14,0,0,1,3.4-7.77,41.66,41.66,0,0,1,5.69-7.73,45.28,45.28,0,0,1,8.15-6.79l1.17-.75.59-.37.15-.09,0,0,.34-.18,1.36-.75c.44-.24.93-.53,1.31-.69.82-.38,1.58-.8,2.45-1.17s1.76-.77,2.66-1.1a82.66,82.66,0,0,1,22.75-4.86,138.48,138.48,0,0,1,21,0c6.18.44,11.32,1.17,14.9,1.75,3.36.56,5.35,1,5.59,1.06-.22-.08-2.13-.82-5.4-1.85-3.48-1.11-8.5-2.57-14.66-3.91a143.36,143.36,0,0,0-21.45-3,90.5,90.5,0,0,0-25.43,1.75c-1.08.24-2.17.55-3.25.83s-2.24.7-3.35,1.05c-.6.19-1,.36-1.53.55l-1.45.54-.36.13-.09,0,0,0-.19.08-.19.09-.78.35-1.53.68a57.14,57.14,0,0,0-11.43,7,55,55,0,0,0-9.05,9.13,55.57,55.57,0,0,0-6.17,9.87,61.25,61.25,0,0,0-5.31,16.33A51.75,51.75,0,0,1,480.74,325a42.73,42.73,0,0,1,3.75-10.12,42.14,42.14,0,0,1,7.15-9.82,49.48,49.48,0,0,1,10.71-8.24l.76-.46.79-.41,1.59-.83c1.06-.58,2.18-1,3.29-1.53l1.59-.72,1.83-.69c1.23-.48,2.47-1,3.61-1.32,2.29-.81,4.72-1.53,7.15-2.19l3.66-.91,3.68-.79a114.58,114.58,0,0,1,14.61-1.83,130.2,130.2,0,0,1,44.83,5.3c4.12,1.25,6.5,2.23,6.78,2.34-.26-.15-2.53-1.39-6.49-3.11a129,129,0,0,0-18.12-6.26,132.06,132.06,0,0,0-27-4.3,118.61,118.61,0,0,0-15.62.18l-4,.37-4,.54c-2.68.42-5.36.88-8.11,1.51-1.42.29-2.67.62-3.93.95l-1.91.49-2.1.64c-1.33.43-2.68.81-4,1.35l-2,.75-1,.38-1,.43a61.75,61.75,0,0,0-14.37,8.66A56.08,56.08,0,0,0,472,307.21a57.71,57.71,0,0,0-6.63,13c-.49,1.37-.92,2.72-1.31,4,.13-1.29.3-2.61.53-3.95a44.84,44.84,0,0,1,4.36-12.87c.51-1.11,1.19-2.15,1.81-3.24.31-.55.69-1.07,1.05-1.59l1.1-1.6c.81-1,1.61-2.08,2.48-3.1l1.37-1.5a18.26,18.26,0,0,1,1.43-1.49A69.87,69.87,0,0,1,492,284.32c.66-.37,1.33-.75,2-1.14l1-.56.25-.14.13-.07,0,0-.09,0a0,0,0,0,0,0,0l.55-.26,4.39-2.16,4.14-1.73c1.43-.55,2.92-1,4.38-1.57a94.42,94.42,0,0,1,18.29-4,115.31,115.31,0,0,1,18.41-.64,153.26,153.26,0,0,1,32.71,5.2,185.53,185.53,0,0,1,22.43,7.61c5,2.08,7.84,3.54,8.18,3.71-.34-.21-3.07-1.94-7.83-4.45a185.5,185.5,0,0,0-21.87-9.7c-4.67-1.73-9.81-3.39-15.35-4.84a147.86,147.86,0,0,0-17.73-3.54A121.82,121.82,0,0,0,526.56,265a103.11,103.11,0,0,0-20.29,2.52c-1.67.43-3.35.82-5,1.3l-5.1,1.63-4.59,1.75-.57.22-.74.33-1.17.54-2.34,1.07a82.74,82.74,0,0,0-17.31,10.91c-.67.51-1.29,1.09-1.92,1.66l-1.86,1.71c-1.2,1.17-2.34,2.4-3.48,3.61l-1.58,1.91c-.53.64-1.07,1.26-1.53,1.93-1,1.33-2,2.62-2.78,4a60.68,60.68,0,0,0-7.36,16.56,68.93,68.93,0,0,0-2.35,15.16c-.08,2.1-.06,4.07,0,5.91-.57-1.68-1.13-3.48-1.64-5.41a59.6,59.6,0,0,1-1.93-21,43.6,43.6,0,0,1,2.74-11.38l.56-1.41c.21-.45.43-.9.65-1.36l.66-1.38.77-1.34c.26-.44.49-.91.77-1.34l.87-1.29.8-1.21,1.09-1.4c.35-.45.73-1,1.06-1.36l1-1.18c.35-.4.65-.8,1-1.19l1.11-1.2c.74-.8,1.54-1.55,2.32-2.31s1.62-1.48,2.43-2.21a80.33,80.33,0,0,1,10.48-7.65,107.3,107.3,0,0,1,21.33-10A129.44,129.44,0,0,1,509,257.67c4-.83,6.38-1.08,6.38-1.08s-2.36-.09-6.5.14a131.93,131.93,0,0,0-17.09,2.1A113.24,113.24,0,0,0,468.18,266a87.36,87.36,0,0,0-12.6,6.65c-1,.66-2.07,1.32-3.07,2.06s-2,1.44-3,2.24L448,278.07c-.49.38-1,.85-1.48,1.27l-1.48,1.32c-.49.43-.86.82-1.3,1.24l-1.28,1.22-.16.16-.26.28-.33.37-.66.72-1.32,1.47c-.43.5-.82,1-1.23,1.54l-1.22,1.56-1.12,1.63-1.1,1.65-1,1.71a57.12,57.12,0,0,0-5.8,14.33,68.92,68.92,0,0,0-2,14.24,84,84,0,0,0,.48,12.73c.36,3.29.87,6.33,1.43,9.05a54,54,0,0,1-2.8-5.13A44.79,44.79,0,0,1,422.5,308a58.51,58.51,0,0,1,4.69-11.82l.81-1.56.79-1.37c.53-.92,1-1.85,1.67-2.76,1.15-1.86,2.42-3.65,3.74-5.39a75,75,0,0,1,8.67-9.5,81.86,81.86,0,0,1,19.19-13.07,87,87,0,0,1,15.65-5.94,52.59,52.59,0,0,1,6.24-1.37,52.07,52.07,0,0,0-6.41.47,90.2,90.2,0,0,0-16.73,3.77,87.08,87.08,0,0,0-22.11,10.89,82.11,82.11,0,0,0-10.93,9c-1.73,1.71-3.42,3.5-5,5.39-.82.91-1.6,1.93-2.39,2.93l-1.18,1.53-1,1.42a70.77,70.77,0,0,0-7.52,13.18,58.84,58.84,0,0,0-4.57,29.11,63.43,63.43,0,0,0,1.47,8.79c-.28-.6-.56-1.23-.81-1.87a55.8,55.8,0,0,1-2.9-8.67l-.54-2.34c-.15-.79-.26-1.6-.4-2.41-.07-.4-.14-.81-.2-1.22l-.11-1.23c-.07-.83-.17-1.65-.23-2.49s0-1.69,0-2.53c0-.42,0-.85,0-1.28l.08-1.27c.06-.86.09-1.72.16-2.58l.35-2.56.19-1.3.28-1.27.57-2.56c.22-.85.51-1.67.76-2.52l.4-1.26a9.09,9.09,0,0,1,.43-1.24l1-2.43a22.46,22.46,0,0,1,1.07-2.4c.38-.78.77-1.55,1.16-2.33.19-.38.39-.77.57-1.15s.44-.74.67-1.11c.43-.73.87-1.47,1.31-2.19s.84-1.45,1.34-2.12l2.84-4c2-2.45,3.88-4.89,5.88-6.88,1-1,1.89-2,2.78-3l2.67-2.52,2.36-2.22c.75-.66,1.47-1.23,2.11-1.77l4-3.36-4.52,2.65c-.73.42-1.54.87-2.4,1.41l-2.73,1.81-3.12,2.07-3.33,2.51c-2.37,1.7-4.68,3.86-7.23,6.06l-3.68,3.68a27.19,27.19,0,0,0-1.82,2L404.62,288c-.29.35-.61.7-.91,1.07l-.84,1.15-1.7,2.34a25.89,25.89,0,0,0-1.63,2.44c-.51.85-1,1.7-1.56,2.56a11.88,11.88,0,0,0-.73,1.31l-.69,1.36c-.45.91-.94,1.8-1.36,2.75L394,305.84l-.6,1.44-.47,1.48-.95,3c-.27,1-.49,2-.72,3.05l-.36,1.54c-.11.51-.16,1-.25,1.54-.16,1-.32,2.07-.47,3.1s-.17,2.07-.26,3.1c0,.3,0,.6-.07.9,0,.49,0,1.3-.05,1.79,0,1.15-.05,2.31,0,3.45s.11,2,.16,3a71,71,0,0,0,1.75,11.34c.07.38.16.74.25,1.1l-.39-.84a57.07,57.07,0,0,1-2.75-7.45A56,56,0,0,1,387,329c-.18-1.45-.4-2.93-.45-4.42,0-.75-.12-1.51-.12-2.26V318.9l.07-1.14c.05-.75.09-1.52.14-2.28.14-1.52.38-3,.57-4.55s.57-3,.9-4.46.75-2.91,1.16-4.34.94-2.79,1.4-4.15,1.08-2.64,1.59-3.91c.25-.64.55-1.26.84-1.86l.86-1.79q.42-.89.84-1.74c.28-.56.59-1.09.89-1.62q.88-1.6,1.71-3.06c.54-1,1.14-1.83,1.67-2.69l1.49-2.36c.46-.73,1-1.36,1.36-1.95l2.59-3.62c-.23.2-1.39,1.29-3.26,3.05-.52.51-1.14,1-1.73,1.67l-1.95,2c-.69.75-1.47,1.51-2.21,2.37L393,285.27c-.41.47-.84,1-1.23,1.48s-.81,1.05-1.21,1.59-.82,1.11-1.25,1.67-.86,1.14-1.24,1.75c-.8,1.22-1.62,2.48-2.47,3.76l-2.34,4.11c-.75,1.42-1.44,2.91-2.18,4.41s-1.29,3.11-1.95,4.7-1.14,3.27-1.64,5c-.23.84-.45,1.7-.68,2.55l-.33,1.29-.27,1.31-.52,2.62c-.15.87-.25,1.76-.38,2.64-.28,1.77-.37,3.54-.5,5.32a69.87,69.87,0,0,0,.21,10.46,74.56,74.56,0,0,0,1.55,9.76c.19.83.38,1.63.59,2.44a47.17,47.17,0,0,1-2.81-4.13,46.46,46.46,0,0,1-3.38-6.73l-.37-.91-.33-.95c-.2-.63-.43-1.27-.64-1.91-.33-1.31-.77-2.64-1-4a46.71,46.71,0,0,1-.89-8.53l.07-2.19c0-.72,0-1.47.13-2.19.18-1.46.25-2.94.57-4.39.14-.72.27-1.45.4-2.17s.35-1.43.52-2.14.37-1.42.55-2.11.44-1.38.66-2.07a75.15,75.15,0,0,1,3.05-7.79l1.72-3.51c.15-.29.29-.57.42-.85l.46-.81.89-1.57c.6-1,1.14-2,1.71-2.95l1.68-2.58,1.48-2.28c.49-.69.95-1.31,1.36-1.87,1.46-2,2.36-3.23,2.55-3.5-.23.19-1.36,1.24-3.17,3l-1.71,1.61c-.58.61-1.21,1.28-1.89,2l-2.18,2.27c-.73.82-1.47,1.73-2.27,2.65l-1.21,1.43-.62.73-.59.79-2.46,3.28a83.16,83.16,0,0,0-4.75,7.59c-.37.69-.8,1.36-1.13,2.09S363.34,308.77,363,309.51ZM356,476c2.84-4.34,10.92-6.23,10.92-6.23a20.6,20.6,0,0,0-13.59,2.27,25.25,25.25,0,0,1,2-7.26l1.63-3.73a50,50,0,0,0,4.18-19.76l.16-38.57a93.55,93.55,0,0,1,1.65-17.1l3.2-16.81a2,2,0,0,1,2.93-1.41,54.93,54.93,0,0,0,8.77,3.63c.84.27,1.68.52,2.52.74a57.65,57.65,0,0,0,5.77,1.26c1.19.19,2.39.36,3.59.5,1.78.18,3.57.3,5.36.36a78.07,78.07,0,0,0,8.66-.26l1-.11.21,0c2.46-.26,4.91-.62,7.33-1.08a97.05,97.05,0,0,0,16.38-4.77c2.65-1,5.25-2.16,7.81-3.42.63-.3,1.27-.62,1.91-1l.94-.49.77-.36,1.84-.88.91-.45.86-.34,1.7-.67c.58-.21,1.1-.46,1.74-.65l3.69-1.22,3.77-1.05c1.26-.37,2.55-.63,3.83-.95q7.72-1.78,15.67-3c10.57-1.61,21.3-2.63,32.1-3.53l8-.65c1.33-.06,2.79-.18,3.88-.12.59,0,1.15,0,1.76,0l1.82.14a29.37,29.37,0,0,1,13.32,4.62,20.58,20.58,0,0,1,2.68,2.11,15.41,15.41,0,0,1,1.14,1.15l.77.82.35.38.28.31.13.15a.09.09,0,0,0,0,.05l0,.06c.08.16.17.31.26.46a5.48,5.48,0,0,0,.23.56c.08.19.11.42.18.64a8.27,8.27,0,0,1,.27,1.4c.07.5.06,1.05.1,1.57a30,30,0,0,1-1,6.92c-.4,1.18-.7,2.38-1.14,3.56s-.87,2.39-1.39,3.56a107.53,107.53,0,0,1-7.32,13.85l-2.11,3.37-.62,1-.52.88a4.91,4.91,0,0,0-.27.47l-.32.62c-.19.39-.43.82-.58,1.2a21.82,21.82,0,0,0-1.2,3.58,10.22,10.22,0,0,1-1-2.08,12.13,12.13,0,0,1-.54-2.45l-.07-.63c0-.22,0-.44,0-.65a9.26,9.26,0,0,1,0-1.29,8.68,8.68,0,0,1,.11-1.26,9.51,9.51,0,0,1,.17-1.24c.08-.4.15-.78.22-1.16s.19-.74.28-1.1c.16-.7.38-1.33.56-1.89s.36-1.06.52-1.46l.49-1.27-.86,1.06c-.28.34-.61.75-1,1.24s-.77,1.05-1.17,1.7c-.2.32-.43.65-.63,1s-.41.74-.63,1.13-.39.81-.59,1.24a13.48,13.48,0,0,0-.57,1.34,14.49,14.49,0,0,0-.48,1.45c-.07.25-.15.51-.22.77s-.11.51-.17.78A16,16,0,0,0,519,401a14.45,14.45,0,0,0,.41,3.51,15,15,0,0,0,1.16,3.32c2.61,5.41,5.67,10.85,9.84,15.24l.88.91c.59.52,1.15,1.08,1.76,1.55.81.67,1.65,1.28,2.5,1.87l-1.58-.36c-1.09-.35-2.2-.67-3.26-1l-3-1.21c-1-.4-1.81-.89-2.63-1.29a21.64,21.64,0,0,1-2.19-1.19l-1.64-1-1.44-.88,1.17,1.21,1.35,1.41c.52.56,1.17,1.11,1.87,1.74s1.46,1.31,2.32,2,1.81,1.33,2.76,2,2.06,1.29,3.15,2,2.31,1.2,3.51,1.79l1.18.48c.81.3,1.59.68,2.41.92A37.48,37.48,0,0,0,543.2,435c1.23.33,2.43.51,3.59.71.58.11,1.15.13,1.7.2s1.09.13,1.61.14l1.49.06c.48,0,.94,0,1.37,0a54.08,54.08,0,0,1,10,1.19l2,.43,2,.45,1.67.55,1.65.53,1.66.73.83.36a5.43,5.43,0,0,1,.8.4l1.56.9.78.43c.25.16.48.35.72.52l1.45,1a29.64,29.64,0,0,1,8.6,11.33,18.34,18.34,0,0,1,.7,1.7c.21.58.45,1.14.64,1.73l.54,1.8.27.88.21.92.42,1.84c.15.62.23,1.25.34,1.87s.22,1.25.3,1.88l.22,1.91a81.28,81.28,0,0,1,0,15.52,119.44,119.44,0,0,1-2.45,15.57,113,113,0,0,1-4.43,15.09c-.23.6-.46,1.2-.71,1.77l-.35.81-.43.92c-.57,1.24-1.14,2.48-1.73,3.62-1.15,2.33-2.43,4.7-3.69,7.06-5.15,9.41-10.77,18.61-16.76,27.53a283.26,283.26,0,0,1-19.32,25.71,167.45,167.45,0,0,1-14,14.66c-.5-.1-1-.2-1.51-.32A86.64,86.64,0,0,1,511.1,593c-4.57-1.84-9.07-4-13.56-6.13-2.24-1.09-4.47-2.16-6.67-3.24l-1.67-.8-1.76-.82c-1.16-.56-2.37-1-3.55-1.48A67.19,67.19,0,0,0,470.37,577a14.55,14.55,0,0,0,3.25-7.77,1.18,1.18,0,0,1,1.71-.94c5.53,2.74,18.79,12,19.21,12.26-.08-.17-2.79-5.58-5.24-8s-9-7-14.77-17.61-12.92-11.6-12.92-11.6c7.12,14.52,2,31.64-8.11,29.79a29.34,29.34,0,0,0-10.65-.24,39.45,39.45,0,0,0-6.25,2,24.86,24.86,0,0,0-5.74,3.33,18.23,18.23,0,0,1-7.15,2.76c-7.34,1.29-22.34-7.44-18.76-23.08s5.77-27.52,5.64-40.69,4-23.4.66-33.12-2.1-25.39-2.1-25.39c-4.45,5.95-4.39,17.17-4.14,22a3.1,3.1,0,0,1-2.35,3.17c-6.67,1.74-14.84-.38-25.28-5.19C365.81,473.29,356.32,475.92,356,476ZM391.72,498l0-.47a1.78,1.78,0,0,1,1.45-2q2.78-.48,6-1.27c-.14,0-.46.67-.55.78-.48.64-1,1.27-1.53,1.86A25.88,25.88,0,0,1,390.7,502c-.44.25-.89.49-1.35.7a5.9,5.9,0,0,0,2.34-4.15C391.71,498.36,391.72,498.15,391.72,498Zm-14.14.53c0,3.12,2.84,5.61,6.38,5.84a18.71,18.71,0,0,1-4.36.14,5.11,5.11,0,0,1-3.56-2.07c-1.53-2-1.88-4.77-1.93-7.22a14.09,14.09,0,0,0,2.53.66,1.31,1.31,0,0,1,1,1.53,3.65,3.65,0,0,0-.07.46A4.85,4.85,0,0,0,377.58,498.48Zm3.75-1.16a2.56,2.56,0,0,1,.2-.91h0a.19.19,0,0,0,0-.07,50.6,50.6,0,0,0,6.39-.21.08.08,0,0,0,0,0h0a2.68,2.68,0,0,1,.27,1.07c0,1.48-1.5,2.69-3.36,2.74S381.39,498.83,381.33,497.32Zm-11.52,35.54a75.77,75.77,0,0,1-1.41-15.94l.11-5.2a3.26,3.26,0,0,1,2.48-3.11c5.94-1.51,12.49.87,12.49.87-1.93-.19-7.39,1.28-7.39,1.28,3.64.24,14,2.46,14,2.46-5.7-.32-14.08,2.26-14.08,2.26,26,.65,26.55,14.5,26.55,14.5,1.5,11.12-3.31,26-5.38,31.78a12.46,12.46,0,0,0-.74,5.57A22.54,22.54,0,0,0,407,584.69c-1.54.42-3.13.92-4.74,1.5a56.73,56.73,0,0,0-7.23,3.22c-.91.48-1.8,1-2.68,1.53-1.69-7.65-5.4-20.78-12.39-30.8C374.51,552.33,371.43,541,369.81,532.86ZM380,593.48v-.13a29.17,29.17,0,0,1,.56-6.79l.83-4-1.57,2c0-3.44,0-6.63.1-9.51,1,2.39,1.89,4.78,2.63,7.08a3,3,0,0,1,.06,1.69l-1.17,4.81,2.26-2.76c.23.79.44,1.56.63,2.3a7,7,0,0,1-.37,4.59l-1.52,3.45,3.19-2.61c.14.7.27,1.33.38,1.89a46.79,46.79,0,0,0-4.12,3.83c-.6.6-1.07,1.13-1.53,1.61v0a17.83,17.83,0,0,1,.94-6.8l1.7-4.93Zm.61,42.73.27-.2,1.52-1.13c1-.82,2-1.62,2.91-2.49l1.38-1.33c.45-.44.91-.87,1.32-1.34.83-.94,1.69-1.81,2.43-2.74s1.43-1.82,2.11-2.66,1.2-1.73,1.73-2.5l.76-1.1c.23-.36.44-.72.63-1,.39-.66.73-1.22,1-1.69l.87-1.43c-.11.11-.49.56-1.08,1.27l-1.26,1.5c-.25.29-.49.61-.78.91l-.92,1c-.64.67-1.32,1.39-2.06,2.14L389,625.58c-.84.76-1.79,1.46-2.71,2.22-.46.38-.95.72-1.45,1.06l-1.49,1c-1,.66-2,1.25-3,1.86l-1.55.79c-.5.27-1,.52-1.52.74l-1.48.65c-.49.2-1,.37-1.45.54h0a6,6,0,0,1-4.18.09c-.82-.29-1.63-.61-2.39-1l.44-.16a35.12,35.12,0,0,0,4.57-2c.76-.41,1.56-.77,2.29-1.24l2.22-1.44,1.12-.73,1.07-.81c.69-.55,1.4-1.1,2.11-1.65a25.9,25.9,0,0,0,2-1.73l1.93-1.79,1-.87c.31-.31.6-.63.88-.93.59-.62,1.16-1.24,1.73-1.83l1.66-1.77c.52-.6,1-1.2,1.48-1.78.95-1.16,1.85-2.26,2.69-3.27.42-.5.79-1,1.13-1.5l1-1.36c.62-.87,1.16-1.61,1.62-2.23l1.37-1.9c-.13.13-.68.75-1.59,1.73l-1.85,2-1.14,1.24c-.4.44-.81.9-1.29,1.34l-3,2.91c-.55.52-1.08,1-1.65,1.58s-1.2,1-1.83,1.53-1.23,1-1.87,1.58l-.95.8-1,.74-2,1.49a21.56,21.56,0,0,1-2.1,1.43l-2.16,1.32-1.07.64-.18.1c-1.07.51-2.1,1-3.12,1.54-.72.35-1.47.59-2.19.87a18.62,18.62,0,0,1-6.9,1.77,6.16,6.16,0,0,1-3-.59c-.43-.23-1.32-1.12-1.84-1a3.73,3.73,0,0,0,.46-.09c.64-.13,1.3-.22,1.95-.4,1.32-.35,2.71-.68,4.09-1.19.69-.25,1.41-.46,2.1-.76l2.1-.89c.35-.16.71-.3,1.05-.47l1-.54,2.05-1.08c1.32-.8,2.62-1.63,3.88-2.46s2.39-1.81,3.51-2.7,2.07-1.88,3-2.77a15.35,15.35,0,0,0,1.33-1.35l1.2-1.29a29.49,29.49,0,0,0,2-2.33l1.45-1.87c.71-.9,1.15-1.47,1.24-1.6-.11.12-.63.62-1.44,1.43l-1.68,1.64a25.58,25.58,0,0,1-2.29,2L385,612c-.47.36-.91.79-1.45,1.14l-3.27,2.26-3.66,2.11c-1.3.62-2.61,1.23-3.93,1.81l-2,.75-1,.37-.2.06c-1,.26-1.9.54-2.83.8-.67.18-1.35.28-2,.42-1.3.29-2.58.42-3.78.57-.6.08-1.19.09-1.76.13s-1.11.08-1.64.06h-1.48a7.1,7.1,0,0,0,1-.49,8.33,8.33,0,0,0,.94-.66c.25-.24.46-.44.61-.6.27-.36.41-.57.41-.57l-.7,0c-.43,0-1-.08-1.73-.16a17,17,0,0,1-3-.66,14.85,14.85,0,0,1-2-.77,5.46,5.46,0,0,1-1.14-.65,3.59,3.59,0,0,1-1-1.09,7,7,0,0,1-.92-3.38,18.75,18.75,0,0,1,.36-4.39l.27-1.23c1.42,4.5,3.22,5.42,3.22,5.42a20.41,20.41,0,0,1,6.93-15.79c-.22.32-.41.66-.6,1a22.5,22.5,0,0,0-1.56,3.66,14.42,14.42,0,0,0-.75,4.15,10.61,10.61,0,0,0,.66,4.37,8.11,8.11,0,0,0,1.11,2,8.92,8.92,0,0,0,1.53,1.54c-.4.13-.77.26-1.12.35-.54.15-1,.31-1.45.41l-1.08.25c-.6.13-.92.22-.92.22s.31.09.91.23c.31.08.68.17,1.13.26s1,.12,1.55.2a16.1,16.1,0,0,0,1.93.12,20.37,20.37,0,0,0,2.31-.06l.78-.07a31.1,31.1,0,0,0,4.7-.85c.55-.12,1.08-.28,1.63-.45a41.25,41.25,0,0,0,4.32-1.62l.25-.11a47.45,47.45,0,0,0,6.43-3.51l.08-.06a35.45,35.45,0,0,0,3.15-2.28c1.07-.87,2.1-1.88,2.93-2.59a45.36,45.36,0,0,1,5.58-4.32,56,56,0,0,1,12.05-6.06c-.12.22-.25.44-.36.66-.25.47-.49.91-.7,1.34s-.41.84-.57,1.23c-.36.76-.62,1.39-.79,1.85s-.25.65-.26.7l.52-.54c.32-.34.81-.82,1.41-1.37.29-.27.65-.56,1-.86s.73-.61,1.12-.93c.78-.63,1.64-1.26,2.51-1.89l0,0a20.06,20.06,0,0,1,8.09-3.36l.24,0c.62-.11,1.21-.21,1.8-.29-.06.07-.13.14-.19.22-.55.64-1.06,1.31-1.54,2s-.95,1.4-1.4,2.07-.82,1.41-1.21,2.08-.68,1.37-1,2a17.14,17.14,0,0,0-.77,1.83c-.22.57-.45,1.07-.59,1.54s-.28.89-.39,1.22c-.18.59-.29,1-.32,1,.06-.08.27-.4.6-.91.19-.29.42-.65.69-1s.62-.83,1-1.3a16.42,16.42,0,0,1,1.19-1.48c.46-.5.89-1.06,1.42-1.57s1-1,1.61-1.55,1.13-1,1.75-1.48,1.2-.94,1.83-1.35,1.23-.81,1.83-1.18,1.2-.67,1.76-1,1.1-.57,1.61-.78c1-.46,1.85-.75,2.42-.95l.48-.14c-.32.48-.64.95-.93,1.44l-.55.91-.48.92c-.16.29-.32.58-.46.87s-.27.59-.39.88a16,16,0,0,0-.66,1.6c-.18.49-.34.95-.48,1.36L425.3,599c-.14.51-.22.84-.24.92s.23-.35.51-.8c.17-.25.38-.55.6-.91l.87-1.1a11.77,11.77,0,0,1,1.07-1.26l.59-.66.68-.64.69-.67.74-.63c.49-.44,1-.84,1.54-1.25s1.09-.76,1.62-1.14,1.08-.69,1.61-1a9.16,9.16,0,0,1,4-1.72,20.76,20.76,0,0,1,5.33.92,72.92,72.92,0,0,1,7.66,2,42.87,42.87,0,0,1,8.19,3.6,22.63,22.63,0,0,1,3.61,2.58,14.33,14.33,0,0,1,1.5,1.52c.5.55,1,1.17,1.49,1.74,1,1.17,2,2.3,2.95,3.32s1.91,2,2.79,2.83,1.71,1.6,2.47,2.25,1.44,1.18,2,1.6a12.91,12.91,0,0,0,1.83,1.22,17.91,17.91,0,0,1-1.58-1.5c-.48-.52-1.05-1.15-1.67-1.91s-1.3-1.62-2-2.59-1.45-2-2.2-3.19-1.51-2.37-2.27-3.66c-.4-.67-.74-1.32-1.18-2a23.85,23.85,0,0,0-1.51-2.11,27.3,27.3,0,0,0-3.7-3.67,48.41,48.41,0,0,0-8.43-5.44c-.12-.06-.25-.11-.37-.18,1.21.37,2.7.86,4.38,1.47a76.9,76.9,0,0,1,7.62,3.19,39.5,39.5,0,0,1,7.87,4.86,16.76,16.76,0,0,1,3.08,3.24l1.38,2c.53.68,1,1.39,1.56,2s1,1.22,1.59,1.78,1.06,1.11,1.59,1.61c1.06,1,2.11,1.92,3.09,2.73s1.92,1.5,2.75,2.1,1.59,1.09,2.21,1.48c1.09.7,1.8,1.08,1.94,1.16-.15-.12-.77-.61-1.73-1.45-.54-.47-1.2-1.07-1.92-1.79s-1.52-1.53-2.35-2.44-1.7-2-2.55-3.08c-.42-.56-.85-1.14-1.26-1.76s-.81-1.24-1.21-1.88-.73-1.31-1.1-2-.69-1.46-1.06-2.2a20.24,20.24,0,0,0-3.18-4.49,44.65,44.65,0,0,0-8-6.62c1.11.66,2.82.37,4,1.16,1.77,1.18,3.38,2.58,5,3.92,2.16,1.73,4.64,3.8,7.2,6.1,1.29,1.15,2.58,2.36,3.84,3.62.61.64,1.27,1.27,1.85,1.93l1,1.08c.17.18.3.33.5.52l.65.61a25.47,25.47,0,0,0,5.06,3.35,54.59,54.59,0,0,0,5.08,2.28c3.35,1.31,6.51,2.28,9.23,3s5,1.31,6.61,1.67,2.53.54,2.53.54-.89-.3-2.42-.88-3.7-1.45-6.27-2.58a94.24,94.24,0,0,1-8.52-4.23,48,48,0,0,1-4.45-2.81,21.78,21.78,0,0,1-3.83-3.38l-.33-.4-.39-.55-.77-1.12c-.54-.83-1.12-1.6-1.68-2.37-1.15-1.52-2.32-3-3.48-4.36h0l4.24,2c4.56,2.2,9.31,4.29,14.22,6.17q2.34.9,4.73,1.7c2.1.7,4.16,1.48,6.19,2.38,9.7,4.38,27.63,9.34,46.27-1.36A70.58,70.58,0,0,1,545.49,605a38.2,38.2,0,0,0,7.92-3A40.75,40.75,0,0,0,564,594.08a51.5,51.5,0,0,0,6.69-8.59,60.78,60.78,0,0,0,3.88-7.37c2.38,12.4-8.29,21-8.29,21a13.57,13.57,0,0,0,9.23-7l-.15.44a18.59,18.59,0,0,1-.87,2.36c-.22.49-.39,1-.63,1.47l-.75,1.43-.19.36-.08.16,0,0-.07.09-.47.76-.47.76c-.16.23-.32.42-.47.64-.59.86-1.36,1.69-2.09,2.55l-1,1-.21.21c-.39.4-.86.74-1.28,1.12l-.65.55-.68.5c-.47.33-.91.69-1.4,1-1,.59-1.92,1.22-2.94,1.72-.51.26-1,.55-1.52.79l-1.54.69c-1,.48-2.1.81-3.12,1.22s-2.1.65-3.12,1c-.5.17-1,.29-1.53.42l-1.51.38c-1,.27-2,.44-2.92.64s-1.87.37-2.77.5l-2.57.42c-.81.13-1.6.2-2.32.29-1.48.19-2.75.36-3.82.43l-3.34.34s1.21.15,3.35.35c1.07.11,2.37.17,3.87.23.75,0,1.54.06,2.39,0l2.65-.06c.94,0,1.89-.1,2.89-.18s2-.15,3.09-.32a50,50,0,0,0,6.63-1.3l1.72-.5a15.22,15.22,0,0,0,1.73-.57l1-.35-.39.32a38.1,38.1,0,0,1-6.12,4,39.28,39.28,0,0,1-6.6,2.62l-.55.17-1.88.51a2,2,0,0,0-.33.08l-1.58.32-1,.2-1,.14-1.93.29c-1.3.11-2.59.26-3.87.33l-1,.06-.94,0c-.62,0-1.26,0-1.88,0a115,115,0,0,1-14-.85c-2-.24-4-.47-5.62-.74s-3.15-.47-4.36-.65l-2.83-.44-1-.14.91.46c.59.31,1.47.74,2.59,1.24s2.52,1.08,4.13,1.72,3.46,1.26,5.5,1.89a73,73,0,0,0,10.73,2.38l-.87.05-1.4.09c-.46,0-.94,0-1.42,0-1,0-1.91,0-2.88-.08l-2.76-.33-1.36-.16-.25,0L515,627l-2.88-.56c-1.9-.48-3.77-1-5.58-1.52l-1.34-.42-1.31-.43c-.87-.27-1.7-.58-2.53-.85l-.87-.31-3.79-1.35-4-1.43-3.1-1.1-2-.69-.72-.22.54.52c.35.36.9.84,1.6,1.45a56.31,56.31,0,0,0,6.17,4.54l1.23.76c-1.08-.38-2.29-.82-3.61-1.33a92.5,92.5,0,0,1-17.77-8.8,45.42,45.42,0,0,1-4.23-3.19c-.66-.56-1.29-1.16-1.89-1.76s-1.18-1.27-1.77-1.91-1.19-1.28-1.79-1.91-1.19-1.22-1.77-1.8c-1.15-1.15-2.28-2.19-3.34-3.14s-2.08-1.78-3-2.49-1.74-1.27-2.44-1.73-1.25-.77-1.65-1a5.63,5.63,0,0,0-.6-.28,6.41,6.41,0,0,1,.54.38c.35.27.84.68,1.43,1.23s1.3,1.25,2.05,2.1,1.59,1.81,2.45,2.9,1.76,2.29,2.67,3.6c.46.64.93,1.31,1.38,2s.93,1.39,1.4,2.14a36.68,36.68,0,0,0,3.28,4.59,49.25,49.25,0,0,0,4.07,4.23c1,.91,2,1.77,3,2.6-.76-.29-1.63-.57-2.55-1-.46-.19-.94-.4-1.45-.6l-1.52-.7c-1.07-.46-2.13-1.06-3.27-1.63s-2.26-1.24-3.39-2-2.28-1.43-3.37-2.26l-1.65-1.2-1.57-1.29c-.52-.43-1.05-.85-1.54-1.29l-1.41-1.36c-.47-.45-.95-.87-1.38-1.33l-1.21-1.35-1.17-1.3c-.36-.42-.67-.86-1-1.28-.62-.84-1.22-1.59-1.71-2.29s-.86-1.35-1.17-1.87l-1-1.63c0,.09.28.74.7,1.79.22.58.5,1.28.81,2.09s.81,1.65,1.28,2.62c.25.48.48,1,.76,1.5l.94,1.54c.31.53.65,1.07,1,1.63s.74,1.07,1.13,1.63l1.21,1.68c.42.57.89,1.09,1.34,1.65s.91,1.11,1.39,1.66,1,1.06,1.49,1.6c1,1.09,2.07,2,3.11,3,.63.59,1.26,1.14,1.9,1.67-.54-.17-1.12-.36-1.74-.59A46.19,46.19,0,0,1,454,618.5c-1-.54-2.07-1.16-3.11-1.82a36.84,36.84,0,0,1-3-2.19c-.48-.39-1-.79-1.42-1.21s-.92-.85-1.36-1.29a32,32,0,0,1-2.4-2.74c-.36-.47-.69-1-1-1.43l-.89-1.42a29,29,0,0,1-1.41-2.77,12.43,12.43,0,0,1-.52-1.29c-.16-.41-.32-.8-.44-1.18-.21-.76-.44-1.43-.58-2l-.38-1.76s0,.66.09,1.81c0,.58.14,1.28.23,2.08.07.4.16.83.24,1.27s.18.92.31,1.41c.25,1,.59,2,1,3.11.22.54.45,1.1.69,1.66s.53,1.12.82,1.69a33.71,33.71,0,0,0,2.08,3.37c.39.55.78,1.11,1.22,1.64s.87,1.07,1.33,1.58c.91,1,1.89,2,2.89,2.94s1.77,1.55,2.64,2.25a7.44,7.44,0,0,1-3.29-.91c-16.43-8.82-15.83-22.62-15.83-22.62-2.94,13.53-13,18.78-13.36,18.94.5-.93,1-1.86,1.46-2.76.5-1.06,1-2.09,1.44-3.06s.77-2,1.12-2.83.55-1.71.78-2.42a13.9,13.9,0,0,0,.48-1.9c.2-.93.33-1.49.35-1.63-.06.12-.3.66-.7,1.51a13.47,13.47,0,0,1-.85,1.72c-.38.64-.77,1.38-1.25,2.15l-1.64,2.43-2,2.58c-.74.87-1.48,1.77-2.27,2.65s-1.59,1.78-2.45,2.63-1.67,1.72-2.54,2.53-1.7,1.62-2.54,2.37c-1.66,1.52-3.28,2.87-4.65,4s-2.36,1.89-3.17,2.5l.27-.42c.3-.51.6-1,.91-1.54.62-1,1.17-2.07,1.73-3.09s1-2.07,1.54-3.05.89-2,1.3-2.9.77-1.81,1.08-2.63.61-1.57.84-2.25l.57-1.75c.32-1,.5-1.52.5-1.52l-.8,1.39c-.26.43-.56,1-.91,1.58s-.82,1.27-1.28,2-1,1.52-1.56,2.31-1.16,1.66-1.84,2.49-1.33,1.74-2.07,2.58-1.45,1.73-2.24,2.55l-1.15,1.26-1.18,1.2c-.76.8-1.57,1.55-2.33,2.28-1.55,1.45-3,2.73-4.34,3.77l0,0a6.85,6.85,0,0,1-3.43,1.49A41.47,41.47,0,0,1,380.64,636.21Zm253.79-40.54-.59,3.81a1.56,1.56,0,0,1-.86,1.17h0l-1.14.59c-.38.16-.79.3-1.18.46l-1.23.48-1.28.35a20.3,20.3,0,0,1-5.47.66,22.51,22.51,0,0,1-2.9-.31c-.48-.11-1-.15-1.48-.29l-1.48-.43a28,28,0,0,1-5.78-2.63c-.95-.51-1.83-1.16-2.73-1.76-.43-.3-.84-.63-1.26-.94s-.84-.65-1.23-1l-1.28-1.09c-.39-.35-.77-.71-1.15-1.07-.77-.7-1.47-1.46-2.18-2.16-1.37-1.47-2.64-2.91-3.73-4.3s-2.07-2.7-2.91-3.89-1.53-2.25-2.08-3.14c-1-1.66-1.6-2.7-1.67-2.82,0,.13.37,1.26,1,3.12.36,1,.83,2.2,1.39,3.57s1.26,2.89,2.09,4.53,1.77,3.39,2.87,5.21c.57.89,1.13,1.83,1.79,2.75.32.46.64.93,1,1.4l1.07,1.4c.35.47.74.93,1.13,1.39s.78.94,1.2,1.39c.86.89,1.7,1.83,2.68,2.68a35,35,0,0,0,6.38,4.74l1.82,1c.61.32,1.27.56,1.91.84a32.37,32.37,0,0,0,4,1.34,30.58,30.58,0,0,0,8.3.84c.68,0,1.36,0,2-.09s1.3-.18,2-.28,1.29-.19,1.91-.31l1.81-.47.56-.14c-.06.72-.13,1.43-.21,2.14a3.49,3.49,0,0,1-1,2.06h0l-.58.55c-.19.18-.42.32-.63.5a20.27,20.27,0,0,1-6.75,3.61l-1.22.35a7.83,7.83,0,0,1-.84.18c-.41.08-.84.19-1.27.25l-1.2.14-.6.08-.62,0-1.26.06c-.84,0-1.7,0-2.57-.07s-1.74-.13-2.62-.29-1.75-.28-2.63-.46-1.72-.42-2.59-.63-1.71-.47-2.53-.77c-1.66-.54-3.25-1.16-4.74-1.8s-2.9-1.31-4.17-2-2.44-1.3-3.45-1.89-1.89-1.13-2.6-1.6c-1.34-.87-2.11-1.43-2.2-1.5.07.09.65.85,1.72,2.06.57.63,1.28,1.41,2.11,2.28s1.8,1.81,2.89,2.83,2.32,2.07,3.65,3.15,2.81,2.19,4.4,3.26c.78.54,1.63,1,2.46,1.57s1.73,1,2.66,1.48,1.84.95,2.81,1.37,2,.81,3,1.19c.79.29,1.61.54,2.43.78l1.65.44,1.46.34.82.13,1.64.25c.55.09,1.11.11,1.66.16s1.11.1,1.66.11l1.65,0a27.55,27.55,0,0,0,4-.33l-.21.67-.14.48-.07.06c-.24.27-.5.54-.76.82s-.26.28-.39.42l-.43.38-1.83,1.62-2.09,1.53c-.75.47-1.55.92-2.36,1.42s-1.71.82-2.62,1.21a28.39,28.39,0,0,1-6,1.63,33.86,33.86,0,0,1-6.75.44l-1.74-.13-.89-.06-.87-.12-1.77-.23c-.59-.11-1.17-.23-1.76-.33-1.17-.2-2.31-.55-3.47-.81s-2.28-.65-3.38-1-2.2-.76-3.24-1.19-2.08-.85-3.08-1.28-2-.91-2.88-1.35-1.82-.91-2.65-1.37c-1.69-.91-3.21-1.81-4.55-2.64s-2.49-1.57-3.43-2.21c-1.74-1.2-2.75-2-2.87-2.09.09.12.89,1.13,2.34,2.71.77.84,1.73,1.85,2.87,3s2.44,2.38,3.93,3.69,3.15,2.7,5,4.08c.92.69,1.87,1.4,2.87,2.08s2,1.36,3.13,2.05,2.21,1.3,3.36,1.95,2.36,1.25,3.63,1.79l.12,0L604.8,651l1,.38,1,.31,2.06.63a45,45,0,0,0,8.63,1.48,40.21,40.21,0,0,0,8.21-.22c-.49.07-.66,1.49-.94,1.82-1.8,2.09-7.22,2.48-9.73,2.74-.93.09-1.89.14-2.87.22s-2,.06-3,0-2.07,0-3.11-.16l-1.58-.12-1.58-.2c-2.12-.25-4.25-.66-6.35-1.08s-4.17-1-6.15-1.59-3.9-1.23-5.71-1.87-3.51-1.31-5.07-2a93.25,93.25,0,0,1-10.17-4.86,94.13,94.13,0,0,0,8.81,7.27c1.39,1,2.92,2.1,4.57,3.21s3.44,2.24,5.33,3.33,3.9,2.19,6,3.23,4.27,2,6.52,2.87l1.7.65,1.73.58c1.13.41,2.32.71,3.49,1s2.37.57,3.55.86,2.37.44,3.56.61l.67.07-.73.43-1.16.6c-.79.41-1.6.85-2.45,1.2s-1.72.81-2.64,1.12a48.19,48.19,0,0,1-5.74,1.84l-1.51.39c-.51.11-1,.19-1.55.3s-1,.21-1.55.28l-1.58.22c-1.06.17-2.13.19-3.21.3s-2.14.09-3.21.08-2.13,0-3.18-.1-2.1-.16-3.13-.27a57.56,57.56,0,0,1-5.93-1c-1.88-.4-3.65-.92-5.26-1.43a61.16,61.16,0,0,1-7.68-3.1,29.1,29.1,0,0,1-2.77-1.5,29.33,29.33,0,0,0,2.36,2.13,59.77,59.77,0,0,0,6.92,5c1.52.92,3.19,1.89,5,2.79a60,60,0,0,0,6,2.6c1.08.39,2.17.79,3.29,1.11s2.29.67,3.46,1,2.38.54,3.59.78,2.45.43,3.7.53l1.87.2c.61.06,1.24.08,1.87.12s1.26.07,1.88.08h.24q-1.15,1.2-2.34,2.37a6.17,6.17,0,0,1-2.57,1.5c-1,.3-2,.62-3.05.84s-2.13.54-3.24.69-2.24.42-3.4.51-2.33.28-3.52.3l-1.81.1-1.81,0c-1.22,0-2.44-.08-3.68-.16-.61,0-1.22-.11-1.84-.19l-1.84-.22c-1.22-.22-2.45-.39-3.65-.67l-1.8-.41c-.6-.13-1.18-.32-1.78-.47-1.18-.31-2.31-.7-3.45-1.07a62.7,62.7,0,0,1-6.42-2.6c-2-.92-3.87-1.93-5.57-2.91a67.29,67.29,0,0,1-7.85-5.35c-1.69-1.35-2.64-2.26-2.75-2.37.09.13.82,1.22,2.22,2.91a67.83,67.83,0,0,0,6.75,7c1.5,1.36,3.2,2.8,5.08,4.2a68.75,68.75,0,0,0,6.16,4.15c1.12.65,2.26,1.34,3.47,1.93.6.3,1.19.64,1.8.92l1.88.86c1.25.59,2.56,1.06,3.87,1.6l2,.68c.68.23,1.36.46,2,.64,1.37.39,2.75.8,4.15,1.08l2.09.46,2.08.34-2.41,1.84a28.85,28.85,0,0,1-5.22,3.5c-2.05.93-4.45,1-6.67,1.22-1,0-2,.1-3,.12s-2.06,0-3.1-.12-2.11-.15-3.14-.37l-1.58-.27c-.53-.11-1.05-.26-1.57-.37a38.38,38.38,0,0,1-6.14-2.11A40.9,40.9,0,0,1,545,703a44.53,44.53,0,0,1-4.89-3.67,45.29,45.29,0,0,1-4-3.86c-1.2-1.26-2.21-2.5-3.1-3.61s-1.6-2.15-2.17-3c-1.07-1.62-1.61-2.64-1.68-2.76a32,32,0,0,0,1.12,3.05c.39,1,.93,2.12,1.57,3.43s1.43,2.76,2.41,4.3a50.21,50.21,0,0,0,3.37,4.82,51.42,51.42,0,0,0,4.45,5,46.72,46.72,0,0,0,5.58,4.64,43.52,43.52,0,0,0,6.58,3.83c.59.27,1.17.56,1.77.82l1.8.7c1.07.45,2.2.7,3.29,1.09a2.45,2.45,0,0,1-2.23.63,50.74,50.74,0,0,1-15.17-3.53,36.62,36.62,0,0,1-6.08-3.09,30.32,30.32,0,0,1-5.41-4.42c-.4-.43-.79-.86-1.18-1.31s-.76-.91-1.1-1.4-.7-1-1-1.47l-.47-.76c-.15-.24-.28-.49-.42-.74l-.42-.74-.42-.9-.21-.44-.1-.22,0-.06v0l-.06-.12-.43-.93c-.57-1.22-1.09-2.45-1.73-3.6l-.9-1.73c-.3-.57-.65-1.11-1-1.65l-1-1.6c-.34-.51-.68-1-1-1.52a61,61,0,0,0-4-5.37,54.31,54.31,0,0,0-3.86-4.09c-1.2-1.17-2.34-2.08-3.26-2.82a28.07,28.07,0,0,0-3.07-2.09,30.12,30.12,0,0,1,2.59,2.6,42,42,0,0,1,2.61,3.3,53.32,53.32,0,0,1,2.92,4.55,59.87,59.87,0,0,1,2.77,5.72c.23.52.44,1,.67,1.57s.39,1.09.59,1.64.41,1.11.59,1.69.34,1.14.52,1.73c.37,1.15.64,2.37.95,3.58.16.64.33,1.29.49,1.94l.25.95.34,1.09c.13.35.24.73.37,1.08l.4,1c.26.7.58,1.36.9,2s.68,1.35,1,2,.77,1.3,1.17,2a39.87,39.87,0,0,0,5.82,7,46.22,46.22,0,0,0,6.9,5.38c1.53,1,3.07,1.87,4.58,2.66h0l0,0a11.89,11.89,0,0,1-7.56.59c-.57-.14-1.17-.29-1.76-.46a40.08,40.08,0,0,1-12.38-5.63A29,29,0,0,1,511.41,710c-.35-.7-.61-1.46-.91-2.19-.09-.22-.18-.44-.25-.66l-.31-1c-.43-1.15-.77-2.85-1.1-4.1-.34-1.46-.67-2.92-1-4.35s-.76-2.84-1.12-4.22a103.63,103.63,0,0,0-5.25-14.71c-.46-1-1-2-1.42-2.94s-1-1.8-1.42-2.6a43.6,43.6,0,0,0-2.63-4,25,25,0,0,0-2-2.36,9,9,0,0,0-.77-.73,18.75,18.75,0,0,1,2.26,3.4,43.47,43.47,0,0,1,2,4.24c.34.84.66,1.75,1,2.7s.67,2,1,3a100.92,100.92,0,0,1,3.05,14.84c.17,1.38.35,2.77.5,4.19s.27,3.06.41,4.62c0,.57.15,1.55.22,2.12,0,.32.06.62.11,1l.21,1.22.22,1.24c.08.4.17.79.26,1.18.2.79.36,1.6.63,2.37a36.32,36.32,0,0,0,4.06,9,37.31,37.31,0,0,0,3.81,5l-1.13-.78a16.3,16.3,0,0,1-1.52-1.1l-1.48-1.2-.75-.6-.7-.68c-.48-.44-1-.9-1.43-1.36s-.89-1-1.34-1.46a44.82,44.82,0,0,1-4.87-6.58l-1-1.82a18.07,18.07,0,0,1-1.07-2.16c-.23-.5-.47-1-.69-1.5-.33-.67-.54-1.35-.82-2l-.37-1a10.39,10.39,0,0,1-.34-1c-.22-.7-.42-1.4-.64-2.1l-.16-.51-.07-.26,0-.07h0v0l0-.14c-.11-.35-.22-.71-.31-1.07-.22-.7-.42-1.41-.63-2.1a75.79,75.79,0,0,0-3-7.79c-1.05-2.42-2.24-4.62-3.34-6.62s-2.23-3.76-3.3-5.27-2-2.8-2.82-3.84c-1.56-1.94-2.59-3-2.7-3.11.09.14.95,1.34,2.17,3.47.63,1.14,1.4,2.52,2.17,4.17s1.59,3.51,2.39,5.57,1.55,4.34,2.18,6.79a75.71,75.71,0,0,1,1.73,8.21l.15,1.28c.05.43.11.86.16,1.29s.12.76.18,1.14c.09.72.2,1.44.3,2.17a10.22,10.22,0,0,0,.2,1.12l.25,1.17a56.53,56.53,0,0,0,2.74,9.18,52.5,52.5,0,0,0,4.5,8.6c.45.68.86,1.38,1.34,2l1.46,1.91.73,1,.79.87,1.57,1.76c.51.59,1.1,1.09,1.64,1.62l1.65,1.57.08.06-1.63-.64-2.88-1.39c-1-.48-2-1.08-3-1.65a16.88,16.88,0,0,1-1.5-.93l-1.5-1c-1-.67-2-1.47-3-2.21s-1.93-1.63-2.91-2.48a64.28,64.28,0,0,1-5.44-5.72l-1.28-1.55-1.2-1.61c-.83-1-1.53-2.19-2.29-3.29a72.39,72.39,0,0,1-3.93-6.81c-1.19-2.27-2.19-4.56-3.1-6.75s-1.65-4.33-2.27-6.32-1.17-3.82-1.58-5.46-.74-3.11-1-4.3c-.48-2.41-.64-3.81-.64-3.81s0,1.41.06,3.87c.07,1.24.16,2.73.34,4.44s.4,3.65.75,5.76.81,4.36,1.35,6.76,1.27,4.9,2.15,7.45a83.43,83.43,0,0,0,3.05,7.79c.64,1.28,1.21,2.62,1.93,3.89l1,1.94,1.14,1.89a69.75,69.75,0,0,0,5.07,7.25c1,1.12,1.9,2.25,2.88,3.32s2,2.11,3,3.05c.52.48,1.05.95,1.57,1.41a20,20,0,0,0,1.58,1.36l.34.26-.58.08a11.94,11.94,0,0,1-1.36-.44l-2.43-.91-2.53-1.12a50.82,50.82,0,0,1-5.27-2.92c-.91-.54-1.75-1.2-2.66-1.82s-1.72-1.35-2.6-2-1.69-1.47-2.52-2.27-1.64-1.59-2.4-2.46l-1.16-1.29-1.1-1.33c-.76-.88-1.42-1.82-2.13-2.74s-1.31-1.88-1.93-2.83-1.22-1.89-1.75-2.86c-1.13-1.9-2.08-3.83-3-5.68s-1.62-3.63-2.24-5.31a76.48,76.48,0,0,1-2.65-8.29c-.52-2-.72-3.24-.72-3.24s0,1.21.24,3.32a76.86,76.86,0,0,0,1.44,8.71c.37,1.8.9,3.72,1.49,5.75s1.32,4.15,2.2,6.3c.41,1.09.91,2.16,1.39,3.26s1,2.19,1.61,3.28,1.15,2.2,1.82,3.26l1,1.61,1,1.57c.68,1.08,1.48,2.06,2.23,3.09s1.62,2,2.42,2.93,1.71,1.86,2.6,2.73a2.61,2.61,0,0,0,.24.23l-1.18-.6a20,20,0,0,1-2.29-1.25c-.76-.48-1.62-.93-2.41-1.5s-1.65-1.15-2.5-1.78l-2.5-2.08c-.79-.78-1.65-1.55-2.47-2.38s-1.63-1.73-2.39-2.68-1.58-1.89-2.27-2.94l-1.1-1.56c-.35-.52-.68-1.07-1-1.62-.71-1.08-1.32-2.23-1.95-3.38-.33-.57-.61-1.15-.9-1.75l-.86-1.77c-.5-1.22-1.06-2.41-1.51-3.64s-.93-2.45-1.32-3.69-.77-2.46-1.12-3.67-.63-2.43-.93-3.63-.54-2.36-.73-3.52c-.45-2.3-.76-4.51-1-6.56a98.22,98.22,0,0,1-.69-10c0-2.42.05-3.81.05-3.81s-.33,1.36-.74,3.76a101.18,101.18,0,0,0-1.16,10.11c-.12,2.11-.22,4.4-.19,6.84,0,1.22.06,2.47.08,3.76s.14,2.59.28,3.93.25,2.71.45,4.08.42,2.77.67,4.17.61,2.81.92,4.24l.58,2.11c.19.71.38,1.43.63,2.12.45,1.4.9,2.81,1.47,4.19.28.69.53,1.39.83,2.06s.61,1.36.92,2c.58,1.37,1.35,2.64,2,3.94s1.51,2.49,2.25,3.72,1.67,2.33,2.48,3.47l0,0-1.71-1.84c-.7-.7-1.32-1.58-2.1-2.51l-1.18-1.45c-.2-.25-.42-.51-.62-.77l-.58-.83c-.79-1.13-1.67-2.3-2.49-3.57s-1.64-2.6-2.44-4L442.84,722c-.38-.72-.8-1.43-1.12-2.18-.67-1.48-1.43-2.95-2-4.47l-.9-2.23c-.25-.75-.51-1.5-.77-2.23-.53-1.46-.89-2.91-1.31-4.28-.19-.69-.33-1.37-.5-2s-.31-1.28-.42-1.9-.24-1.21-.35-1.77-.17-1.1-.25-1.61c-.18-1-.25-1.9-.34-2.62-.13-1.47-.15-2.32-.15-2.32s-.16.83-.34,2.31c-.06.74-.17,1.64-.21,2.68,0,.52-.06,1.07-.1,1.65s0,1.21,0,1.85,0,1.31,0,2,0,1.42.07,2.17c.12,1.46.18,3,.4,4.65.1.8.21,1.62.31,2.45s.29,1.67.43,2.51c.26,1.71.71,3.39,1.09,5.1.18.87.45,1.69.69,2.53.11.41.24.81.35,1.2l-.35-.51c-.94-1.65-1.92-3.33-2.91-5s-1.78-3.59-2.66-5.42c-.39-.93-.77-1.87-1.16-2.8s-.8-1.87-1.1-2.82c-.64-1.9-1.33-3.77-1.8-5.63-.24-.93-.54-1.83-.73-2.74s-.39-1.78-.58-2.64-.32-1.72-.47-2.54-.29-1.62-.36-2.39-.17-1.51-.26-2.21-.1-1.38-.15-2c-.11-1.26-.09-2.36-.12-3.28s0-1.63.06-2.11,0-.76,0-.76-.07.26-.17.74-.25,1.19-.43,2.09-.32,2-.43,3.29c-.06.64-.15,1.33-.19,2s-.08,1.48-.13,2.28,0,1.62,0,2.49,0,1.75,0,2.66.08,1.85.12,2.81.19,1.94.28,2.94c.16,2,.53,4,.88,6.14a31,31,0,0,0,.64,3.13c.23,1.06.47,2.11.71,3.16.59,2.08,1.19,4.16,1.83,6.2.11.28.21.55.31.83-.16-.23-.31-.44-.48-.66l-.8-1.15c-.26-.39-.52-.79-.77-1.19l-.79-1.22-.73-1.26c-1-1.69-1.9-3.49-2.77-5.32-.43-.91-.81-1.85-1.21-2.79s-.76-1.87-1.07-2.83c-.68-1.9-1.26-3.81-1.76-5.68s-.9-3.72-1.21-5.49-.55-3.45-.74-5a66.6,66.6,0,0,1-.42-7.65c0-1.86.11-2.93.11-2.93s-.35,1-.77,2.85a68.92,68.92,0,0,0-1.35,7.72c-.18,1.61-.35,3.38-.43,5.26s-.12,3.87-.06,5.94.2,4.21.46,6.4c.11,1.09.29,2.18.44,3.29s.38,2.21.61,3.31c.48,2.21,1,4.42,1.68,6.56a.36.36,0,0,1,0,.11c-.43-.94-.91-1.93-1.31-3-.51-1.28-1.1-2.63-1.63-4.05s-1.05-2.9-1.56-4.43-1-3.08-1.42-4.65-.9-3.16-1.24-4.74c-.18-.79-.37-1.57-.55-2.34s-.3-1.55-.46-2.3c-.32-1.52-.53-3-.77-4.41s-.39-2.75-.52-4-.25-2.39-.32-3.4-.11-1.91-.14-2.64c-.05-1.46,0-2.3,0-2.3s-.23.8-.54,2.25c-.15.73-.35,1.6-.52,2.62s-.36,2.17-.55,3.43-.33,2.63-.49,4.09-.29,3-.36,4.61c0,.8-.08,1.62-.12,2.44s0,1.67-.06,2.52c-.06,1.7,0,3.4,0,5.14,0,.92.07,1.83.12,2.75a55.06,55.06,0,0,1-5.67-13.38,56.86,56.86,0,0,1-1.9-17.19c0-1.47.2-2.92.35-4.39l.12-1.11.19-1.09.39-2.2a22,22,0,0,1,.49-2.17l.53-2.19c.41-1.46.92-2.9,1.35-4.37,0,0-7.93,8.13-13.16,27.61.28-14,3.2-32.93,15.52-43.63-.27.11-8.95,4.06-16.09,18.57,0,0,.43-15.82,10.55-20.36a50.85,50.85,0,0,0,15.76-10.82,20.71,20.71,0,0,0,7.05.88,14,14,0,0,0,4.2,3.57c-.44.89-.89,1.83-1.33,2.82s-1,2.31-1.47,3.56c-.23.65-.46,1.28-.66,2l-.15.53c0,.18-.08.39-.13.58l-.11.59a1.14,1.14,0,0,0-.06.3l0,.24c-.12,1.24-.25,2.5-.37,3.73s-.23,2.4-.37,3.54c-.25,2.29-.6,4.41-1,6.21-.19.91-.4,1.72-.6,2.45s-.39,1.35-.56,1.87-.33.91-.43,1.18l-.15.42.26-.36c.16-.24.43-.58.72-1s.67-1,1.07-1.69.81-1.42,1.25-2.27c.86-1.69,1.79-3.72,2.67-5.93.45-1.1.88-2.25,1.32-3.4s.87-2.31,1.32-3.46l.07-.22.09-.15.16-.29a3,3,0,0,1,.16-.3l.2-.33c.26-.43.59-.89.9-1.33.65-.91,1.35-1.8,2.05-2.66,1.07-1.29,2.13-2.51,3.12-3.6-.72,3.44-1.6,7.72-2.44,12-.22,1.21-.45,2.43-.67,3.62s-.43,2.39-.6,3.56c-.09.58-.18,1.16-.24,1.76l-.06.44,0,.21,0,.27c0,.33-.06.7-.05,1,.07,1.05.16,2.08.25,3,.36,3.68.68,6.11.68,6.11s.57-2.39,1.52-5.92c.24-.89.5-1.82.81-2.81a4.9,4.9,0,0,1,.26-.56l.15-.29.18-.34.78-1.41c.54-1,1.15-2,1.76-3s1.25-2.06,1.88-3.09c1.87-3.05,3.81-6.09,5.48-8.72.43,1.79.87,3.69,1.25,5.58.16.93.34,1.89.42,2.7.06.37.05.9.07,1.38s0,.93,0,1.39c0,1.86,0,3.62-.06,5.11-.06,3-.15,5-.15,5s.73-1.86,1.78-4.7c.52-1.41,1.13-3.07,1.74-4.88.15-.45.3-.92.46-1.39a13.09,13.09,0,0,0,.43-1.5c.27-1.14.42-2.16.58-3.21.44-3.18.72-6.31.93-9,.29,1.27.63,2.62,1,4.06.31,1.19.64,2.41,1.05,3.7.09.31.21.64.32,1l.09.25,0,.12,0,.06v0s0,.12.05.18l.18.41.19.44.25.53c.18.35.36.75.54,1a33.66,33.66,0,0,0,2.26,3.38c.78,1,1.57,2,2.36,2.95,1.57,1.84,3.09,3.48,4.41,4.86s2.45,2.5,3.24,3.27l1.24,1.22-.88-1.49c-.56-1-1.36-2.32-2.27-4s-1.93-3.6-2.93-5.71c-.5-1.05-1-2.14-1.43-3.25a30,30,0,0,1-1.12-3.31c-.08-.28-.09-.47-.14-.71s0-.2-.07-.35l-.08-.47-.06-.47,0,.1v-.39c0-.28,0-.55-.05-.84,0-1.15,0-2.34,0-3.49,0-2.29.09-4.47.17-6.34,0-.47,0-.93.06-1.36,0,.1.07.18.1.27.37.87.79,1.81,1.26,2.78s1,2,1.58,3,1.21,2,1.86,3,1.4,2,2.09,2.94,1.51,1.86,2.25,2.76l2.32,2.51c.79.76,1.56,1.48,2.29,2.19s1.47,1.26,2.13,1.83,1.25,1.08,1.83,1.48l1.46,1.06,1.26.93s-.32-.47-.9-1.29l-1-1.46c-.41-.55-.79-1.23-1.23-2s-.93-1.47-1.36-2.33-.89-1.73-1.37-2.66-.84-1.91-1.28-2.89-.77-2-1.11-3-.67-2-.9-3.06c-.2-.79-.38-1.55-.54-2.31.14.17.26.34.39.51.34.46.73.9,1.1,1.36.72.91,1.54,1.77,2.35,2.63l.6.65.65.6,1.26,1.21c.83.78,1.74,1.47,2.56,2.17s1.72,1.27,2.5,1.86,1.6,1,2.33,1.51,1.36.88,2,1.19l1.59.82,1.36.7-1.12-1.05L484,654.34c-.5-.44-1-1-1.56-1.64s-1.18-1.25-1.75-2-1.23-1.49-1.81-2.34-1.2-1.68-1.73-2.6c-.27-.45-.55-.91-.82-1.38l-.41-.68-.37-.71c-.48-1-1-1.89-1.38-2.86-.21-.47-.42-.94-.61-1.41s-.36-.94-.53-1.4c-.34-.86-.58-1.73-.84-2.53.68.63,1.4,1.3,2.17,2,1.44,1.31,3,2.67,4.6,4s3.22,2.62,4.76,3.8c.78.58,1.52,1.15,2.25,1.67s1.4,1,2.05,1.43l1.77,1.15c.52.35,1,.61,1.37.85l1.19.7c-.08-.1-.4-.46-.92-1-.28-.34-.66-.73-1-1.2l-1.32-1.61c-.47-.59-1-1.25-1.49-1.93s-1.05-1.45-1.6-2.2c-1.08-1.52-2.18-3.17-3.25-4.81.22.13.44.28.67.43,1.54,1,3.18,2.13,4.88,3.35s3.48,2.54,5.22,4,3.49,3,5.17,4.59,3.22,3.57,4.89,5.46,3.39,3.79,5.12,5.6,3.46,3.57,5.2,5.22c.86.82,1.72,1.63,2.59,2.38s1.72,1.5,2.55,2.2c1.69,1.4,3.33,2.66,4.87,3.78s3,2.07,4.32,2.87,2.49,1.46,3.44,2,1.75.91,2.28,1.18l.75.39-.7-.49c-.48-.34-1.2-.81-2.09-1.46s-1.95-1.44-3.11-2.43-2.47-2.09-3.84-3.36-2.78-2.71-4.23-4.27c-.72-.79-1.46-1.59-2.18-2.45s-1.47-1.73-2.19-2.63c-1.47-1.8-2.92-3.71-4.35-5.7s-2.84-4-4.24-6.08-2.7-4.13-4.33-6.33a75.42,75.42,0,0,0-5-5.77c-1.65-1.76-3.3-3.36-4.89-4.86l1.5.48c.91.33,1.89.64,2.85,1.07l1.49.61c.49.21,1,.47,1.49.7l1.53.74,1.51.85a35.19,35.19,0,0,1,3,1.88l.77.5c.24.17.48.37.72.55l1.48,1.14a16.69,16.69,0,0,1,1.42,1.23l1.4,1.28c.91.91,1.73,1.89,2.62,2.85l.05,0,.11.16h0l.09.11.18.2.35.4.71.8c.49.54.93,1.07,1.44,1.6,1.13,1.1,2.23,2.22,3.36,3.25s2.26,1.93,3.4,2.83,2.31,1.75,3.47,2.57,2.33,1.59,3.48,2.33,2.31,1.41,3.43,2.09l3.34,1.89L542,669c1,.52,2.06,1,3,1.49,1.95.91,3.75,1.73,5.36,2.42s3,1.25,4.2,1.7c2.19.85,3.52,1.29,3.68,1.34-.15-.07-1.4-.71-3.43-1.86-1.09-.61-2.39-1.38-3.88-2.29s-3.12-2-4.89-3.14l-2.74-1.88-2.86-2.08-3-2.28c-1-.82-1.95-1.64-3-2.49s-2-1.78-3-2.67-1.9-1.91-2.86-2.87-1.81-2-2.72-3-1.58-2.07-2.38-3.08c-.39-.57-.79-1.19-1.18-1.78l-.58-.89-.3-.45s-.14-.23-.16-.25v0l0-.06c-.86-1.28-1.69-2.6-2.6-3.83l-1.45-1.79-.52-.65,2.12.68c1.19.4,2.41.81,3.64,1.28l1.88.69,1.86.78a77.57,77.57,0,0,1,7.58,3.58c1.25.67,2.43,1.4,3.7,2.15l3.87,2.44c2.58,1.65,5.21,3.27,7.8,4.83s5.22,3.05,7.8,4.39c1.27.7,2.57,1.3,3.82,1.94s2.5,1.19,3.73,1.7,2.41,1,3.58,1.47l1.73.65,1.68.58c1.08.39,2.14.71,3.15,1s2,.58,2.87.81c1.81.5,3.4.82,4.7,1.12s2.36.45,3,.59l1.08.2-1-.35c-.67-.23-1.67-.54-2.93-1s-2.77-1-4.45-1.74c-.86-.35-1.77-.73-2.69-1.17s-1.94-.88-2.94-1.41L570.9,663l-1.57-.86c-1.07-.57-2.15-1.22-3.25-1.89s-2.21-1.39-3.35-2.11-2.28-1.53-3.4-2.37c-2.29-1.63-4.59-3.43-6.91-5.27s-4.64-3.79-7-5.75L542,641.84c-1.23-1-2.49-2-3.76-3-2.56-1.84-5.16-3.57-7.74-5.06-.2-.12-.4-.24-.6-.34l.13,0c1-.16,2.06-.31,3.06-.49l2.88-.77A33.12,33.12,0,0,0,541,630.1a20.49,20.49,0,0,0,2.13-1.22l.23-.14.66.58c1.05.91,2.3,1.92,3.66,2.94.69.5,1.4,1,2.15,1.52s1.49,1,2.25,1.48,1.55.93,2.31,1.38,1.54.83,2.29,1.22,1.48.73,2.16,1.06,1.36.61,2,.86,1.17.49,1.67.68l1.32.46,1.12.4c-.07-.06-.43-.29-1-.67l-1.14-.76c-.44-.31-.91-.68-1.44-1.07s-1.08-.8-1.65-1.29-1.19-1-1.78-1.51-1.22-1.09-1.82-1.69-1.22-1.18-1.8-1.81-1.17-1.25-1.72-1.88-1.07-1.27-1.57-1.88-1.14-1.44-1.63-2.12a45,45,0,0,0,7.3-2.69,38.37,38.37,0,0,0,13.21-10.52c.11-.13.21-.28.31-.41l.89,1.25c.8,1,1.6,2.06,2.61,3.07.5.5,1,1.06,1.53,1.55s1.1,1,1.67,1.51a18.45,18.45,0,0,0,1.81,1.44c.62.47,1.23,1,1.88,1.42l2,1.28,1,.65c.34.19.69.38,1.05.56a43.69,43.69,0,0,0,4.22,2.11l2.12.91c.5.21,1.33.52,1.84.69l.25.09c1.4.45,2.73.94,4,1.32l3.65.92c.57.13,1.1.28,1.61.39l1.48.26,2.4.42,2.05.35-2-.65-2.3-.75-1.41-.46c-.49-.18-1-.4-1.52-.62l-3.4-1.4c-1.19-.54-2.4-1.2-3.67-1.83l-1-.47-.22-.13-2.58-1.58a39.11,39.11,0,0,1-3.66-2.53l-.89-.65-.83-.73L583.26,620c-.54-.48-1-1-1.51-1.51s-1-1-1.42-1.51-.85-1-1.27-1.53-.74-1-1.11-1.53c-.74-1-1.27-2-1.82-2.89s-.93-1.77-1.22-2.55a14,14,0,0,1-.63-1.67,48.59,48.59,0,0,0,2.24-5.06c1.69-4.55,3.34-9.4,3.66-14.32,0-.3,0-.61.05-.91a62.14,62.14,0,0,0-1.66-14.37,25.65,25.65,0,0,0-1.79-6c.15,6.47-9.43,16.82-9.43,16.82a72.22,72.22,0,0,1-7.32,6.79,45.22,45.22,0,0,1-9.64,6,34.24,34.24,0,0,1-12,3q-1.29.09-2.61.09,5.32-5.26,10.16-10.91c.58-.66,1.14-1.34,1.7-2l1.45,7.17,3.16-8.72a53.71,53.71,0,0,1,7.17-13.48l0-.06a17.52,17.52,0,0,0,2.63,10.38s.75-4.17,2.57-10.58a87.34,87.34,0,0,1,9.82-22.1l.15-.24a48.44,48.44,0,0,0,6.92,17s-1.87-15.49.74-29.15a8.11,8.11,0,0,1,.94-2.51h0c1.31-2.43,2.63-4.84,3.89-7.38.67-1.27,1.23-2.49,1.81-3.72l.43-.93s.13-.27.14-.3l.1-.25.22-.5.37-.9a72,72,0,0,1,4.45,10.94,156.93,156.93,0,0,0-.08-18,36.31,36.31,0,0,1,.88-10.18v-.05c.72-3.17,1.31-6.37,1.79-9.59a53.89,53.89,0,0,1,12,17.33c-.06-.58-1.81-19-10.78-30.44a70.73,70.73,0,0,1,18.42,13.54c-.16,2.48-.25,5-.27,7.45l-5.33-5.27,3.25,7.41A33.55,33.55,0,0,1,617.2,513a.43.43,0,0,1,0,.05,110.52,110.52,0,0,0,3.47,18.54c.44,1.51.87,3,1.37,4.52s1,3,1.58,4.48l.86,2.25c.29.74.6,1.4.89,2.11l1.8,4.18c1.7,3.93,3.21,8,4.53,12A74.35,74.35,0,0,1,634.43,595.67Zm44-114.79a22.73,22.73,0,0,1-.87,3.18l-1.33,3.62-2.73,7.52c-1.83,5.06-3.69,10.21-5.54,15.35l-.71,1.93-.15.39-.1.24c-.09.19-.19.39-.3.58a7,7,0,0,1-1.65,2q-.26.21-.51.39l-.34.23-.43.28-1.71,1.11-.85.56-.48.31-.46.32a18.14,18.14,0,0,0-2,1.59,21.46,21.46,0,0,0-3.25,3.76c-.84,1.31-1.37,2.11-2.12,3.11a32,32,0,0,1-4.73,5.09,23.86,23.86,0,0,1-5.4,3.51c-.47.24-1,.39-1.42.59s-1,.3-1.44.46-1,.21-1.45.33l-.18,0h0l-.43,0h-.33a3.6,3.6,0,0,1-2.9-1.55,3.16,3.16,0,0,1-.38-.73c-.06-.12-.08-.26-.13-.39v0l0-.06,0-.2c0-.12-.06-.28-.07-.34a9.8,9.8,0,0,1-.12-1.09,7.37,7.37,0,0,1,0-1.15,13.41,13.41,0,0,1,1.13-4.55,17.61,17.61,0,0,1,1-2.08c.09-.17.19-.33.28-.49l.22-.38c.09-.18.21-.39.29-.57a7.8,7.8,0,0,0,.22-6.08,3.57,3.57,0,0,0-.19-.45,3.68,3.68,0,0,0-.17-.37l-.27-.5-.43-.84c-.59-1.15-1.14-2.2-1.62-3.19-1-1.95-1.72-3.61-2.26-4.84-.28-.62-.49-1.11-.63-1.43s-.25-.53-.25-.53-.12.16-.31.48a8,8,0,0,0-.77,1.48,13.53,13.53,0,0,0-.82,6.15,17,17,0,0,0,1,4.3c.13.37.28.77.46,1.17.07.18.15.35.23.53l.07.16,0,.09a1.35,1.35,0,0,1,0,.72,2.13,2.13,0,0,1-.14.37h0l-.08.14,0,0,0,0v0l-.39.6a25.13,25.13,0,0,0-1.5,2.73c-.31.65-.59,1.32-.85,2a102.19,102.19,0,0,1-2.45-14.35,118.58,118.58,0,0,1,1.91-34.89,129.62,129.62,0,0,1,4.62-16.94c.25-.7.49-1.38.75-2.06l.39-1,.19-.5,0-.13v0l.11-.25a6,6,0,0,1,1.56-2.15,4.93,4.93,0,0,1,1.1-.8,4.87,4.87,0,0,1,.6-.31l.32-.13.55-.21c.36-.14.68-.26,1.08-.43l1.22-.51c.77-.36,1.54-.71,2.3-1.12a40.26,40.26,0,0,0,4.32-2.67c1.34-.94,2.6-1.9,3.81-2.85l3.57-2.81,3.39-2.63,1.87-1.29,1.41-.77.78-.33.38-.17c.13,0,.25-.06.38-.11l.75-.22.71-.11a6.06,6.06,0,0,1,1.65,0l.18.11.52.32.42.29c.27.17.61.44,1,.7s.69.58,1,.92a17.33,17.33,0,0,1,4,5.76,15.4,15.4,0,0,1,.69,2c.11.35.19.71.27,1.06s.09.42.14.63.09.45.14.68c.38,1.83.79,3.76,1.22,5.76l2.77,13,.75,3.42c.13.66.18,1,.26,1.54s.12,1,.16,1.55A23.49,23.49,0,0,1,678.46,480.88Z" transform="translate(-337.69 -236.03)"/><path d="M461.91,690.55c-.11-.63-.25-1.33-.42-2.08s-.33-1.56-.54-2.4-.42-1.74-.68-2.65-.49-1.85-.79-2.79-.58-1.91-.88-2.87-.63-1.91-1-2.84-.68-1.86-1-2.75c-.69-1.77-1.39-3.42-2.05-4.82s-1.29-2.56-1.75-3.37-.77-1.27-.77-1.27a14.28,14.28,0,0,0-.19,1.48,28.55,28.55,0,0,0-.06,3.84,38.27,38.27,0,0,0,.61,5.32c.07.48.17,1,.28,1.46s.22,1,.35,1.48c.24,1,.54,2,.84,3s.66,2,1.06,2.93c.18.48.38.95.59,1.41s.39.92.62,1.35c.44.88.86,1.73,1.34,2.51s.91,1.51,1.37,2.16.91,1.23,1.32,1.74.81.92,1.13,1.26c.66.67,1.08,1,1.08,1s0-.56-.19-1.48C462.14,691.72,462,691.18,461.91,690.55Z" transform="translate(-337.69 -236.03)"/><path d="M623,584.86c-.83-.29-1.83-.52-2.93-1a36.77,36.77,0,0,1-3.6-1.5c-.63-.33-1.29-.63-2-1s-1.34-.74-2-1.17a38.48,38.48,0,0,1-4-2.88l-1-.82c-.32-.28-.62-.59-.93-.88-.64-.58-1.19-1.24-1.78-1.86a9.58,9.58,0,0,1-.8-1c-.25-.34-.55-.66-.78-1a19.11,19.11,0,0,1-1.31-2.16l-.3-.55a3.29,3.29,0,0,1-.26-.54c-.14-.34-.28-.68-.43-1l-.11-.25a2.92,2.92,0,0,1-.1-.35l-.21-.7-.2-.71-.06-.18,0-.08v-.07c.08.36,0,.09,0,.16l-.1-.37c-.23-1-.48-2-.78-2.93s-.58-1.88-.9-2.78c-.63-1.81-1.33-3.52-2-5.11s-1.44-3.06-2.16-4.39a62.38,62.38,0,0,0-3.81-6.27c-1-1.45-1.68-2.24-1.68-2.24l.13.72c.09.47.2,1.16.38,2s.41,1.9.66,3.1.56,2.51.89,4l1.07,4.63c.38,1.63.77,3.35,1.15,5.11s.74,3.58,1.06,5.4l.06.35.13.54.16.71.17.72c0,.12.05.24.09.37l.16.43.66,1.74a6.78,6.78,0,0,0,.37.81l.39.76a25.32,25.32,0,0,0,1.81,2.87,16.52,16.52,0,0,0,1.06,1.29,12.88,12.88,0,0,0,1.1,1.22l1.17,1.14c.38.38.82.68,1.23,1s.82.66,1.24,1,.86.57,1.29.84a29.26,29.26,0,0,0,5.18,2.61c.86.31,1.72.57,2.53.82s1.65.39,2.42.55a25.24,25.24,0,0,0,4.27.4,22.12,22.12,0,0,0,3.27-.18,19.6,19.6,0,0,0,2.05-.4c.47-.1.71-.17.71-.17l-.71-.19C624.49,585.24,623.82,585.1,623,584.86Z" transform="translate(-337.69 -236.03)"/><path d="M627.78,576.75c-.35-.56-.76-1.23-1.19-2s-.87-1.67-1.3-2.65c-.2-.5-.45-1-.63-1.53s-.43-1.06-.58-1.64a33.1,33.1,0,0,1-1-3.6c-.06-.31-.11-.63-.18-1a6,6,0,0,1-.17-1c0-.33-.09-.66-.13-1a8.8,8.8,0,0,1-.13-1c0-.65-.09-1.29-.17-1.93s0-1.5-.05-2.24l0-.56v-.48l0-1.16c0-.78-.07-1.56-.14-2.33s-.13-1.52-.26-2.27-.2-1.49-.36-2.21a41.21,41.21,0,0,0-1.06-4.12c-.23-.64-.42-1.26-.66-1.86s-.47-1.16-.72-1.69a26.21,26.21,0,0,0-1.53-2.84,18.61,18.61,0,0,0-1.43-2,12.1,12.1,0,0,0-1.08-1.19,4.45,4.45,0,0,0-.42-.38s.22.76.48,2.06.58,3.12.85,5.29c.13,1.09.25,2.26.36,3.5,0,.61.09,1.25.14,1.9s.07,1.31.11,2c0,1.34.1,2.73.11,4.14,0,.36,0,.71,0,1.07s0,.71,0,1.07v2.29c0,.75.07,1.5.1,2.25s.22,1.67.34,2.5a26.33,26.33,0,0,0,1.24,4.56,23.2,23.2,0,0,0,1.92,4,20.53,20.53,0,0,0,2.33,3.16,17.78,17.78,0,0,0,4.44,3.68,12.17,12.17,0,0,0,1.44.71,5.2,5.2,0,0,0,.54.19l-.34-.44C628.43,577.74,628.14,577.29,627.78,576.75Z" transform="translate(-337.69 -236.03)"/><path d="M600.31,508.76c.13.36.28.76.43,1.23s.31,1,.44,1.54c.07.28.14.57.22.87l.19,1c.27,1.3.47,2.79.64,4.4s.28,3.37.34,5.23.07,3.83,0,5.86l0,1.54c0,.52,0,1-.08,1.57l-.07,1.58c0,.53,0,1.06-.09,1.6-.07,1.07-.17,2.15-.21,3.24s-.1,2.32-.15,3.48c0,.57,0,1.1,0,1.71l.08,1.82a32.23,32.23,0,0,0,.27,3.59c.15,1.16.27,2.32.5,3.45s.47,2.24.73,3.33.62,2.13,1,3.15.75,2,1.14,3,.85,1.83,1.27,2.69.94,1.66,1.38,2.42a35.28,35.28,0,0,0,2.84,3.93,28.33,28.33,0,0,0,2.58,2.68,22.9,22.9,0,0,0,1.86,1.49c.46.31.71.45.71.45l-.4-.73c-.27-.46-.61-1.18-1-2.06s-.89-2-1.38-3.24-1-2.67-1.46-4.23-.92-3.26-1.32-5c-.16-.92-.39-1.83-.55-2.78s-.3-1.92-.46-2.91-.21-2-.33-3c-.08-.51-.07-1-.1-1.55s-.08-1-.11-1.56c-.12-1-.05-2.07-.1-3.1l0-1.55c0-.52,0-1.12,0-1.67,0-2.26.1-4.51.14-6.73.05-1.14,0-2.29-.09-3.42,0-.56,0-1.12-.07-1.68l-.17-1.65c-.13-1.1-.21-2.17-.42-3.22l-.27-1.56L608,523l-.18-.75a42.09,42.09,0,0,0-1.63-5.5,30,30,0,0,0-2.07-4.42l-.54-.9c-.19-.29-.38-.56-.56-.82a15,15,0,0,0-1-1.36,11.63,11.63,0,0,0-1.74-1.68c-.21-.17-.39-.29-.51-.37l-.18-.1a5.53,5.53,0,0,1,.38.73C600.05,508.1,600.16,508.41,600.31,508.76Z" transform="translate(-337.69 -236.03)"/><path d="M425.25,574.83c-.36-.11-.75-.28-1.18-.41l-.65-.2-.69-.28c-.47-.18-1-.34-1.45-.58-.24-.12-.49-.22-.74-.32s-.49-.26-.75-.37-.5-.26-.76-.37l-.73-.42c-.52-.25-1-.58-1.48-.86s-.94-.62-1.4-.91-.9-.6-1.3-.91-.81-.57-1.17-.85-.7-.52-1-.73-.57-.43-.78-.6l-.52-.39-.19-.14a5.51,5.51,0,0,0,.26.86,7.33,7.33,0,0,0,.4.95,11.41,11.41,0,0,0,.63,1.15,12.17,12.17,0,0,0,.91,1.28,15.67,15.67,0,0,0,1.18,1.31,8.22,8.22,0,0,0,.69.62,7.27,7.27,0,0,0,.74.61,15,15,0,0,0,1.65,1.07l.87.47c.31.14.61.25.91.37a9.62,9.62,0,0,0,1.83.56,8.58,8.58,0,0,0,1.76.28l.81.06.78,0a8.36,8.36,0,0,0,1.32-.14c.39-.08.72-.17,1-.25a7.8,7.8,0,0,0,.84-.27s-.31-.13-.84-.29C425.93,575,425.61,574.91,425.25,574.83Z" transform="translate(-337.69 -236.03)"/><path d="M394.84,468.19a9.63,9.63,0,0,0-.44-1.54c-.14-.38-.25-.6-.25-.6a3.65,3.65,0,0,0-.43.49,8,8,0,0,0-.9,1.33,11.33,11.33,0,0,0-.84,2,13.4,13.4,0,0,0-.53,2.33c0,.41-.09.82-.09,1.22a11.78,11.78,0,0,0,0,1.19,11.1,11.1,0,0,0,.35,2.15,6.83,6.83,0,0,0,.63,1.52,3.16,3.16,0,0,0,.36.55s.15-.21.34-.55c.09-.17.22-.38.34-.61s.25-.5.38-.78a14.56,14.56,0,0,0,.72-1.95c.1-.36.2-.73.27-1.12s.14-.78.2-1.16.08-.8.1-1.18a9,9,0,0,0,0-1.16A13.23,13.23,0,0,0,394.84,468.19Z" transform="translate(-337.69 -236.03)"/><path d="M391.35,384.23c.88.32,1.89.67,3,1s2.32.62,3.62.92,2.67.53,4.1.74,2.91.39,4.43.46c.76.05,1.52.11,2.29.15l2.31,0c1.55,0,3.1-.06,4.61-.17s3-.32,4.44-.51,2.8-.5,4.1-.78c.65-.16,1.27-.29,1.88-.45l1.73-.53c1.1-.36,2.11-.67,3-1s1.62-.7,2.23-1,1.09-.52,1.41-.67l.5-.26-.56,0c-.37,0-.9,0-1.57.09s-1.47.11-2.38.2-2,.11-3.08.21c-.56,0-1.14.08-1.74.14l-1.87.09c-1.27.05-2.61.18-4,.2s-2.82.14-4.28.13-2.93.09-4.41.05l-2.22,0c-.73,0-1.47,0-2.19,0-1.46,0-2.9-.08-4.29-.1l-4-.15c-1.28-.07-2.5-.1-3.62-.18l-7.58-.41s.67.39,1.9.94C389.7,383.59,390.46,383.91,391.35,384.23Z" transform="translate(-337.69 -236.03)"/><path d="M403.93,378.11c.84.12,1.87.25,3.05.35s2.51.19,4,.22,3,.05,4.71,0,3.45-.2,5.27-.41,3.71-.52,5.61-.91c.95-.23,1.91-.45,2.86-.7l2.86-.88c.94-.33,1.87-.73,2.8-1.09s1.82-.89,2.71-1.33,1.66-.9,2.46-1.35,1.57-.82,2.34-1.24l2.31-1.17,2.24-1.07c1.47-.67,2.86-1.29,4.18-1.83l1.88-.76,1.72-.66c1.09-.39,2.06-.72,2.85-1s1.43-.45,1.87-.57l.67-.18a18.34,18.34,0,0,0-2.68-.08,30.75,30.75,0,0,0-3.08.25c-1.19.13-2.52.34-3.95.64s-3,.71-4.61,1.2c-.8.26-1.62.53-2.45.83s-1.68.62-2.54,1-1.74.75-2.58,1.14l-2.53,1.22c-.82.37-1.6.77-2.45,1.11s-1.68.66-2.55,1l-2.61.85c-.9.23-1.78.49-2.66.74L423,374c-.88.21-1.76.36-2.61.56-1.73.35-3.4.68-5,.95-.8.15-1.58.28-2.34.4l-2.2.35-3.86.6c-1.16.15-2.17.32-3,.43l-2.63.39.68.14C402.43,377.87,403.09,378,403.93,378.11Z" transform="translate(-337.69 -236.03)"/><path d="M478.88,358.74c1.42-.06,3.42-.13,5.81-.26,1.2,0,2.48-.14,3.84-.19l2.09-.11,2.18-.09c1.47-.09,3-.11,4.54-.18s3.11-.07,4.68-.13l4.66,0c1.54.07,3.06,0,4.51.1.74,0,1.46.08,2.16.1a19.51,19.51,0,0,1,2.06.12l2,.15c.63,0,1.26,0,1.83.15,1.17.14,2.25.27,3.22.36.49,0,.92.14,1.34.2l1.14.19c.69.11,1.25.18,1.63.23l.59.08-.5-.3c-.33-.19-.81-.48-1.44-.81a24.94,24.94,0,0,0-2.32-1.16c-.93-.37-2-.77-3.14-1.2s-2.46-.7-3.83-1.06c-.69-.19-1.4-.3-2.13-.43s-1.47-.24-2.23-.36a22.25,22.25,0,0,0-2.32-.27c-.79-.08-1.59-.15-2.39-.2-1.61-.1-3.24-.09-4.87-.1s-3.26.1-4.85.25-3.17.31-4.67.56c-.75.12-1.5.22-2.21.36l-2.1.42c-1.38.27-2.64.62-3.83.93a52.36,52.36,0,0,0-5.58,1.85,21.91,21.91,0,0,0-2.06.89l.59,0C477.62,358.77,478.18,358.78,478.88,358.74Z" transform="translate(-337.69 -236.03)"/><path d="M671,454.77a14.7,14.7,0,0,0-3.2-6.42,7.29,7.29,0,0,0-8.63-1.83l-.57.27a3.61,3.61,0,0,0-1.57,1.4l-8,13a18.87,18.87,0,0,0-2.48,6.4l-.49,2.67a12,12,0,0,1-3.37,6.33l-3.87,3.82a3.8,3.8,0,0,0-1.07,3.34l1.46,8.32a14.89,14.89,0,0,0,1.43-6,3.12,3.12,0,0,1,1.35-2.42l1.9-1.3a1.09,1.09,0,0,1,1.48.21c5.37,6.88,6.55,16.09,6.8,20.59a1.52,1.52,0,0,0,2.45,1.12c13.06-9.88,4.68-25.05,1.22-30.21a7.1,7.1,0,0,1-1.18-4.22l.2-5.16a3.74,3.74,0,0,1,.56-1.84l4.8-7.72a.86.86,0,0,1,1.53.12l5.61,13.15a33.64,33.64,0,0,1,1.88,5.78l1.17,5.15a1.56,1.56,0,0,0,3,.27l1.23-2.88a6.39,6.39,0,0,0,.37-3.86Z" transform="translate(-337.69 -236.03)"/><path d="M601.91,406.45c-1.14-.48-2.27-1-3.42-1.53s-2.28-1.06-3.43-1.6c-2.29-1.07-4.54-2.21-6.77-3.34s-4.4-2.27-6.49-3.41-4.12-2.25-6-3.31-3.73-2.09-5.39-3.05l-8.09-4.67-3.09-1.8s.2.26.61.72,1,1.15,1.79,2a84.26,84.26,0,0,0,6.91,6.46,111.37,111.37,0,0,0,10.73,8c1,.69,2.08,1.34,3.16,2s2.18,1.3,3.3,1.94,2.26,1.26,3.42,1.87,2.32,1.19,3.51,1.75c2.38,1.11,4.78,2.19,7.2,3.1l1.8.7,1.81.62c1.2.43,2.4.8,3.58,1.15,2.37.7,4.69,1.28,6.9,1.73,1.11.24,2.2.43,3.25.59s2.06.33,3.05.42,1.91.23,2.82.27l2.54.13c1.6.05,3,0,4.14,0s2-.16,2.65-.21l.94-.1-.92-.22c-.59-.14-1.46-.36-2.56-.59l-3.93-1c-1.51-.43-3.2-.87-5-1.45l-1.39-.41-1.44-.48c-1-.32-2-.63-3-1-2.06-.71-4.2-1.51-6.4-2.38S604.19,407.45,601.91,406.45Z" transform="translate(-337.69 -236.03)"/><path d="M622.29,405.12a43.07,43.07,0,0,0,3.43,2.78c.73.53,1.54,1.1,2.4,1.67s1.79,1.16,2.77,1.73,2,1.15,3.05,1.69,2.14,1.08,3.23,1.6,2.22,1,3.32,1.41c.55.23,1.11.44,1.66.63l1.64.57c1.08.36,2.15.64,3.16.92s2,.45,2.9.63,1.75.25,2.49.34a15.94,15.94,0,0,0,1.94.11c.54,0,1,0,1.26,0l.44,0-.39-.22c-.26-.13-.63-.35-1.1-.58s-1-.52-1.7-.86-1.38-.69-2.17-1.11-1.66-.83-2.56-1.29-1.87-.92-2.86-1.41-2-1-3.07-1.48-2.12-1-3.19-1.5l-3.22-1.44c-1.06-.46-2.12-.92-3.15-1.34-2.06-.86-4-1.61-5.7-2.21s-3.15-1.06-4.18-1.36l-1.2-.33-.43-.1.31.31C621.58,404.46,621.88,404.77,622.29,405.12Z" transform="translate(-337.69 -236.03)"/><path d="M607.5,390.18c-1.34-.94-2.94-1.95-4.69-3-.88-.5-1.79-1-2.73-1.5s-1.9-1-2.87-1.43-2-.91-2.92-1.32-1.94-.82-2.89-1.18c-1.88-.73-3.68-1.33-5.25-1.78s-2.91-.77-3.87-.95c-.47-.11-.85-.16-1.11-.2l-.4-.06.3.27c.19.17.48.44.85.74.75.63,1.83,1.48,3.18,2.41s2.94,1.95,4.69,2.95c.88.51,1.79,1,2.73,1.5s1.9,1,2.87,1.44,2,.91,2.92,1.33,1.94.81,2.88,1.17c1.89.73,3.69,1.33,5.26,1.79s2.91.76,3.86.94c.47.11.86.16,1.12.2l.4.06-.3-.28c-.2-.17-.48-.44-.85-.74C609.93,392,608.85,391.11,607.5,390.18Z" transform="translate(-337.69 -236.03)"/><path d="M610.13,370.93a10.24,10.24,0,0,0-.87-.84,13.34,13.34,0,0,0-1.22-.94,16.55,16.55,0,0,0-1.52-.94c-.56-.31-1.15-.6-1.77-.88s-1.27-.53-1.93-.76-1.36-.44-2-.64-1.39-.35-2.08-.48-1.37-.24-2-.33a25.49,25.49,0,0,0-3.68-.19,18.48,18.48,0,0,0-2.68.24c-.32,0-.58.11-.76.14l-.27.07.22.17c.15.1.36.27.64.44a22.34,22.34,0,0,0,2.31,1.32,32.38,32.38,0,0,0,3.33,1.46c.62.23,1.26.45,1.91.66s1.32.39,2,.59,1.34.35,2,.5,1.32.28,2,.4,1.26.21,1.85.31l1.68.22,1.45.14c.42.05.83.05,1.14.09s.58.05.76.07h.29l-.17-.23C610.52,371.4,610.36,371.18,610.13,370.93Z" transform="translate(-337.69 -236.03)"/><path d="M612.61,349.62a98.19,98.19,0,0,0-9.91-.1c-2.9.14-5.31.39-7,.62s-2.63.44-2.63.44l.69.11c.45.06,1.1.18,1.94.29l6.87,1,9.64,1.37,2.67.41,2.73.43c1.83.31,3.69.6,5.54,1s3.69.7,5.5,1.07l2.68.58,2.61.61,2.51.64,2.39.65,2.26.67,2.09.66c1.33.47,2.57.87,3.64,1.3s2,.82,2.79,1.12l1.78.8.64.27-.5-.47c-.34-.3-.81-.79-1.48-1.32s-1.47-1.2-2.47-1.83c-.5-.33-1-.71-1.59-1.05l-1.82-1.07-2-1c-.71-.35-1.46-.68-2.23-1s-1.57-.65-2.39-1-1.68-.61-2.54-.92c-1.74-.58-3.55-1.13-5.41-1.59s-3.76-.88-5.67-1.23A95.79,95.79,0,0,0,612.61,349.62Z" transform="translate(-337.69 -236.03)"/><path d="M612.09,335c-.92-.21-1.85-.38-2.77-.52-.46-.07-.92-.12-1.37-.16s-.9-.1-1.35-.11a29.08,29.08,0,0,0-4.83.1,22.66,22.66,0,0,0-3.4.61,10.7,10.7,0,0,0-1.27.4l.33.13c.22.06.52.19.92.31s.87.3,1.41.45,1.15.34,1.81.54c1.33.37,2.86.77,4.49,1.17.81.18,1.64.42,2.5.59s1.71.4,2.57.61,1.72.39,2.56.6,1.68.38,2.47.6,1.6.35,2.33.56l1.09.27c.36.07.69.16,1,.25.65.17,1.26.32,1.81.44l1.42.37c.4.11.73.16.95.21l.35.07-.22-.27c-.15-.17-.35-.44-.65-.74s-.63-.69-1.07-1.08-1-.79-1.55-1.22a17.74,17.74,0,0,0-1.95-1.25,19.94,19.94,0,0,0-2.31-1.17,24.47,24.47,0,0,0-2.57-1C613.93,335.39,613,335.2,612.09,335Z" transform="translate(-337.69 -236.03)"/><path d="M618.22,319.74c-1.42-.59-2.86-1.2-4.33-1.72s-2.95-1-4.43-1.42-2.93-.81-4.35-1.11-2.8-.58-4.12-.81-2.57-.37-3.72-.51a54.28,54.28,0,0,0-5.63-.34c-.68,0-1.22,0-1.59,0l-.56,0,.52.21c.35.13.84.34,1.48.57l2.28.84,3,1.05,3.49,1.21,3.88,1.34,2,.68,2.08.74c1.41.46,2.82,1,4.24,1.49s2.8,1.06,4.2,1.53,2.72,1.08,4,1.57,2.54,1.07,3.73,1.57,2.27,1.05,3.32,1.5,1.92,1,2.76,1.39,1.52.82,2.11,1.14,1.06.58,1.39.76l.5.26-.34-.44c-.23-.28-.56-.71-1-1.23a17.69,17.69,0,0,0-1.69-1.82c-.71-.65-1.51-1.38-2.42-2.14s-2-1.45-3.1-2.23-2.37-1.43-3.65-2.16c-.65-.34-1.33-.66-2-1S618.93,320,618.22,319.74Z" transform="translate(-337.69 -236.03)"/><path d="M601.88,299.12a20.12,20.12,0,0,0-3.13-.06,9.32,9.32,0,0,0-1.21.13l.26.19c.18.11.42.3.74.49.63.42,1.53,1,2.62,1.59s2.35,1.27,3.71,1.94c.68.33,1.38.69,2.1,1s1.45.67,2.17,1l2.18,1c.7.33,1.43.6,2.11.91s1.38.55,2,.83,1.27.49,1.83.74,1.1.44,1.58.61l1.25.48c.34.14.64.22.84.29l.31.09-.16-.28c-.1-.17-.25-.45-.47-.76s-.46-.72-.79-1.14-.74-.85-1.18-1.33-1-.92-1.54-1.42a21.3,21.3,0,0,0-1.85-1.4,23.23,23.23,0,0,0-2.1-1.31c-.73-.43-1.51-.76-2.28-1.14s-1.57-.66-2.35-.94-1.58-.52-2.35-.71A26.41,26.41,0,0,0,601.88,299.12Z" transform="translate(-337.69 -236.03)"/><path d="M583.17,271.33c1.61.79,3.5,1.66,5.51,2.57,1,.46,2.06.91,3.11,1.38s2.13.93,3.19,1.42,2.13.95,3.18,1.41,2.06.95,3.06,1.39,1.92.93,2.84,1.34,1.72.89,2.52,1.27a10.25,10.25,0,0,1,1.1.6l1,.55c.32.18.63.33.9.49l.72.46c.44.29.82.5,1.06.65l.39.23-.21-.39c-.14-.25-.34-.63-.64-1.08l-.49-.77a9.2,9.2,0,0,0-.66-.83,23.43,23.43,0,0,0-1.72-1.89c-.68-.62-1.42-1.34-2.26-2s-1.74-1.33-2.73-1.93c-.48-.31-1-.61-1.49-.92l-.77-.46-.8-.41c-1.07-.57-2.17-1.12-3.29-1.6l-1.68-.71c-.56-.23-1.13-.43-1.69-.64-1.12-.42-2.25-.76-3.34-1.09s-2.17-.58-3.18-.82-2-.41-2.89-.56a40.47,40.47,0,0,0-4.41-.48c-.53,0-1,0-1.25,0h-.45s.54.32,1.48.83S581.55,270.55,583.17,271.33Z" transform="translate(-337.69 -236.03)"/></svg>